<svg xmlns:dc="http://purl.org/dc/elements/1.1/" xmlns:cc="http://creativecommons.org/ns#" xmlns:rdf="http://www.w3.org/1999/02/22-rdf-syntax-ns#" xmlns:svg="http://www.w3.org/2000/svg" xmlns="http://www.w3.org/2000/svg" xmlns:sodipodi="http://sodipodi.sourceforge.net/DTD/sodipodi-0.dtd" xmlns:inkscape="http://www.inkscape.org/namespaces/inkscape" width="555.4736938476562" height="659.631591796875" version="1.1" sodipodi:docname="pink.svg" inkscape:version="0.92.3 (2405546, 2018-03-11)" style=""><rect id="backgroundrect" width="100%" height="100%" x="0" y="0" fill="none" stroke="none"/>
  <metadata id="metadata70">
    <rdf:RDF>
      <cc:Work rdf:about="">
        <dc:format>image/svg+xml</dc:format>
        <dc:type rdf:resource="http://purl.org/dc/dcmitype/StillImage"/>
        <dc:title/>
      </cc:Work>
    </rdf:RDF>
  </metadata>
  <defs id="defs68"/>
  <sodipodi:namedview pagecolor="#000000" bordercolor="#666666" borderopacity="1" objecttolerance="10" gridtolerance="10" guidetolerance="10" inkscape:pageopacity="0" inkscape:pageshadow="2" inkscape:window-width="1920" inkscape:window-height="1025" id="namedview66" showgrid="false" inkscape:zoom="1.4142136" inkscape:cx="584.18865" inkscape:cy="421.12215" inkscape:window-x="0" inkscape:window-y="27" inkscape:window-maximized="1" inkscape:current-layer="svg64" inkscape:pagecheckerboard="true"/>
  
  
<g class="currentLayer" style=""><title>Layer 1</title><path id="path62" style="fill:#ce7f82;stroke:none" d="m165.40846815457783,-43.76087037767402 c-16.544174527460605,-0.044537336594569536 -33.09147999699123,0.9677817382851287 -49.490738430648214,3.1042221828865895 c-13.001570158511598,1.693852233950998 -27.212752751540695,2.9799929400613427 -38.979600068651855,9.155490741931334 c6.3662488757285285,2.64658910401608 14.721727335476666,-0.16577646687261555 21.375909715067152,-1.0928622452796168 c13.304630262013097,-1.8537943348778543 26.848142602124337,-2.4479666657565824 40.23700652247934,-3.7231025505830297 c22.15174207114324,-2.10942506694098 45.64908508478542,-2.8819479292305994 67.89994850668388,-1.358097047837077 c13.439160178508097,0.9202957835563347 26.727431582556903,3.6219052217725385 40.23700652247934,3.6592489360447624 c-11.45873243966528,-6.908944243794013 -29.707484878128025,-6.453790770450452 -42.751819430134304,-7.758098485005696 C191.1416181578352,-43.05341829936997 178.27614967388595,-43.726223800245265 165.40846815457783,-43.76087037767402 zm8.443283152418914,8.182966066502368 c-5.906239298660284,-0.020835224939921442 -11.80736095305349,0.09575150145896313 -17.697015060587788,0.3536455651389802 c-11.335506607190185,0.4962995847321616 -21.397285624782217,4.94917192076822 -32.692567799514464,6.024254438790715 c-15.203301433228049,1.446771865773898 -30.11738680801125,0.19570274047370922 -45.266632337789254,3.2933235394777043 c-19.94120895124999,4.077769129762516 -40.00815854788273,12.505469243999142 -59.098103329891536,19.4873443195216 c-48.28184271780939,17.65851327497159 -93.19383613936115,39.56238658409118 -128.46911679503728,78.020601809257 c-6.794784311851021,7.408638825951509 -15.408171924156616,12.719797946273399 -22.30668095179032,20.123407146409598 c-21.983611739389065,23.592717293165002 -41.379175447032885,51.03561314794974 -54.699636456299686,80.47401304495868 c-5.100417798660404,11.272648858563354 -14.445199765557385,24.951973669752498 -13.313282475821886,37.72219361482437 c5.058923385684098,-4.336794859250976 7.42296571508642,-10.45533466357549 10.368691814468056,-16.346283899757232 c4.610280762958454,-9.220561525916908 9.117979792600753,-18.50273596807136 13.846206538334679,-27.662941984204544 c11.677153999946745,-22.624514323717833 25.716073166207927,-41.12976510469685 43.68505015388116,-59.098103329891536 c-13.558500625040864,21.7719927480228 -34.143992069167524,42.24759944214947 -40.23700652247934,67.89994850668388 c5.234080104702265,-4.780659337452075 9.163601013558523,-10.985960187090686 13.831470992102272,-16.346283899757232 c-0.5521271738756475,7.046505767249193 -5.114131073445846,12.76016069344126 -8.413817089579918,18.861096807412185 c-3.124152075179755,5.7765252488834395 -5.522517828552204,12.113979516819317 -9.148123597518357,17.59878646841478 c-2.54599658770988,3.8514359680735697 -5.482044429616407,6.930698632851683 -10.10100129710627,7.549342608134802 c-20.100019386368405,34.437847957427 -29.654079053814613,77.38330798145074 -31.38604327738112,116.93880020595557 c-1.1578085460262602,26.438228098176587 1.1908104358134153,52.88022841571464 1.2082883855216169,79.21660659113121 c-2.385048561619963,-7.994590233435114 -2.624961713010247,-16.86810757809564 -3.772219361482438,-25.148129076549587 c-1.3383834294539696,-9.659396378302697 -4.245326712876977,-19.172933607961397 -4.916655641353532,-28.920348438032025 c-0.7569588109447893,-10.992247219359825 1.1371433224388934,-21.748102025400083 1.1444362798710948,-32.692567799514464 c-4.125047612426431,8.583056453826373 -3.56339558466304,19.595422176447443 -3.7918663373234933,28.920348438032025 c-0.2228124236182302,9.097335693441813 -1.0637619619780414,17.26544801750512 -0.19401391786557437,26.40553553037707 c0.5567795777548075,5.849454823205434 -0.12983501227770114,11.754235530379278 0.4273217874132569,17.603690353584707 c3.0013034646408108,31.518150171639594 10.285074411029171,62.68045431684601 19.013361310272618,93.04807758323345 c3.38104021369671,11.76303737555607 6.689295454813616,24.09316506178833 11.839758030336354,35.20738070716941 c2.602454137486734,5.615577222793524 4.777225360426674,10.902971361138073 10.42763274199122,13.831470992102272 c-2.6722401956741586,-11.250015542394458 -8.52416707996782,-21.837377883621837 -12.507756466338654,-32.692567799514464 c-10.165753957259021,-27.703178990727025 -18.927404879348327,-54.43564019909924 -18.927404879348327,-84.24623240644111 h2.514812907654959 c0.04463792911087561,16.187850686574972 3.850461478071852,32.28894032783583 8.271376829083888,47.78144524544421 c1.8822117207343545,6.595096850325129 3.3022951345257643,14.907810916578592 9.332313524500824,18.861096807412185 c-0.5342720022312976,-25.886226664946314 -13.293049548573347,-50.613124579463694 -13.831470992102272,-76.70179368347625 c3.933041646926973,12.437007234807597 5.0843695200902035,26.181717181595776 7.809672268115884,38.979600068651855 c4.361818505088597,20.481893726395814 10.191904239279271,40.70350431684934 17.404764880369843,60.355509783719 c2.97426922588352,8.103984594918105 8.319209827993935,28.32559518537163 17.537382281648572,30.177754891859507 c4.52955526862273,15.722610298658802 12.129573871659684,35.92535979230492 25.148129076549587,46.524038791616725 l-1.2574064538274794,-3.772219361482438 c10.65765136199633,12.49610533813749 19.380279932197556,26.581572433912918 30.177754891859507,38.979600068651855 h-2.514812907654959 c8.652220095819153,12.331385092686089 19.999093657351946,24.685227464637535 31.43515505865471,34.480448888082684 c5.156623867146493,4.415973743648491 9.798981068742087,8.695116516991478 16.346283899757232,10.786183449706577 c-6.391371856676001,-9.048296841742543 -16.0482408480065,-16.04827857020012 -23.890722622722105,-23.890722622722105 c8.901180286644728,6.196499004461818 16.666935119547777,14.036151614656307 25.148129076549587,20.811057587878775 c12.022088253173607,9.604070494334287 24.86019557268763,18.436219166663886 37.72219361482437,26.87215906539244 c22.489971833158293,14.75062253578562 48.93072731830707,25.45584158393025 74.1869807758213,34.43623847716611 c89.77253377101289,31.921777643318215 191.20506045869072,25.171051596202858 277.88682629587294,-12.429173592600252 c7.834899613799025,-3.3987696446956774 16.35005611911871,-5.610899670785283 23.890722622722105,-9.57298740679567 c30.627918976394277,-16.093545202537907 59.034076193262635,-39.25923468991857 84.24623240644111,-62.74507243450822 c58.86172349063651,-54.83046582560106 98.11474659267314,-132.14103284369787 111.36152358374562,-211.13131884720465 c3.274286405766758,-19.526264821486926 4.664324092343957,-39.37568310160752 5.528162326123438,-59.098103329891536 c0.2929757037418033,-6.701976398900465 -1.3640219470475108,-13.5171193786454 -0.7956993780465694,-20.11850326123967 c0.5796769492790085,-6.733411560246152 2.500918566340165,-13.364973197732276 3.1459680771536616,-20.11850326123967 c1.5038581187776654,-15.731412143835591 1.174618812907478,-33.27223217472893 0.1007182569515816,-49.03885169927169 c-3.8702970648809805,-56.49904418983013 -26.718768052090034,-108.42490110708974 -60.402172137220546,-153.4035873669525 c-14.166242886369302,-18.91752920905997 -29.928411192065518,-38.878932107958434 -49.817362331094444,-52.2093769244686 l-0.002514812907654972,-0.002514812907654972 c-0.0010813695502916358,-0.00037722193614824645 -0.012574064538274834,-0.0037722193614824623 -0.012574064538274834,-0.005029625815309942 c-0.002514812907654972,-0.0010059251630619894 0.0012574064538274838,0.0012574064538274838 -0.005029625815309942,-0.005029625815309942 c-0.011316658084447345,-0.002514812907654972 -0.015088877445929823,-0.008801845176792403 -0.019615540679708724,-0.012574064538274834 c-0.0012574064538274836,-0.00015088877445929838 -0.0037722193614824623,-0.002514812907654972 -0.005029625815309942,-0.002514812907654972 c-0.005029625815309942,-0.0010813695502916358 -0.011316658084447345,0.0012574064538274838 -0.01722646841743655,-0.002514812907654972 c0.0012574064538274838,0.0012574064538274838 -0.006287032269137439,-0.0037722193614824623 -0.005029625815309942,-0.002514812907654972 c-0.0012448323892892115,-0.0007921660659113149 -0.002514812907654972,0.0012574064538274838 -0.005029625815309942,-0.002514812907654972 c-0.0037722193614824623,-0.0037722193614824623 -0.012574064538274834,-0.005029625815309942 -0.012574064538274834,-0.010059251630619884 l-0.002514812907654972,-0.002514812907654972 l-0.002514812907654972,-0.002514812907654972 h-0.014711655509781565 l-0.014711655509781565,-0.014711655509781565 c-0.002514812907654972,0 -0.013454249055954102,-0.014711655509781565 -0.014711655509781565,-0.014711655509781565 c-0.005029625815309942,-0.0004903885169927201 -0.008801845176792403,-0.010059251630619884 -0.01722646841743655,-0.014711655509781565 c-0.0037722193614824623,-0.002514812907654972 -0.010059251630619884,-0.012574064538274834 -0.014711655509781565,-0.014711655509781565 c-0.0012448323892892115,-0.0007795920013730402 -0.010059251630619884,-0.013454249055954102 -0.014711655509781565,-0.014711655509781565 c-0.0012448323892892115,-0.00018861096807412325 -0.013454249055954102,-0.014711655509781565 -0.014711655509781565,-0.014711655509781565 c-0.01798091228973301,-0.010059251630619884 -0.02879460779264944,-0.020747206488153504 -0.04174589426707259,-0.02942331101956315 c-0.0012574064538274836,-0.0012196842602126617 -0.01697498712667107,-0.005029625815309942 -0.014711655509781565,-0.005029625815309942 c-0.0037722193614824623,-0.0012574064538274838 -0.0192383187435605,-0.01571758067284355 -0.014711655509781565,-0.014711655509781565 c-0.014963136800547054,-0.006287032269137439 -0.020998687778919032,-0.008801845176792403 -0.03432719618949033,-0.01722646841743655 l-0.002514812907654972,-0.014711655509781565 c-0.002514812907654972,-0.002514812907654972 -0.012574064538274834,-0.002514812907654972 -0.014711655509781565,-0.005029625815309942 c-0.006287032269137439,-0.005029625815309942 -0.011316658084447345,-0.010059251630619884 -0.01722646841743655,-0.014711655509781565 c-0.006287032269137439,-0.0000377221936148247 -0.0037722193614824623,0.00041494412976307083 -0.005029625815309942,0 c-0.002514812907654972,-0.0007670179368347638 -0.020495725197388046,-0.011316658084447345 -0.014711655509781565,-0.014711655509781565 c-0.006287032269137439,-0.005029625815309942 -0.011316658084447345,-0.010059251630619884 -0.01722646841743655,-0.014711655509781565 c-0.0012574064538274836,-0.0010310732921385414 -0.012574064538274834,0.0012574064538274838 -0.014711655509781565,-0.002514812907654972 c-0.002514812907654972,-0.0008047401304495893 -0.011316658084447345,-0.011316658084447345 -0.014711655509781565,-0.014711655509781565 c-0.002514812907654972,-0.0006538513559902918 -0.012574064538274834,0.0010310732921385414 -0.014711655509781565,0 c-0.06324754462752252,-0.026405535530377174 -0.12765190319256597,-0.049290332990037336 -0.19155329917607886,-0.07368401819429055 c-0.006287032269137439,-0.0012574064538274838 -0.011316658084447345,-0.013454249055954102 -0.01722646841743655,-0.014711655509781565 l-0.002514812907654972,-0.002514812907654972 c-0.006287032269137439,-0.002514812907654972 -0.013705730346719597,-0.012574064538274834 -0.019615540679708724,-0.014711655509781565 c-0.006287032269137439,-0.002514812907654972 -0.011316658084447345,-0.011316658084447345 -0.014711655509781565,-0.014711655509781565 c-0.012825545829040356,-0.005029625815309942 -0.027285720048056405,-0.011316658084447345 -0.03923108135941757,-0.014711655509781565 c-0.032692567799514655,-0.011316658084447345 -0.06287032269137427,-0.025022388431166984 -0.09329955887399942,-0.04174589426707259 l-0.002514812907654972,-0.002514812907654972 c-0.013831470992102338,-0.007544438722964917 -0.028417385856501214,-0.012574064538274834 -0.04426070717472747,-0.014711655509781565 c-0.0413686723309243,-0.0037722193614824623 -0.034075714898724886,-0.002514812907654972 -0.07607309045656283,0 c-0.005029625815309942,0.00023890722622722194 -0.011316658084447345,-0.013454249055954102 -0.014711655509781565,-0.014711655509781565 h-0.002514812907654972 c-0.0003520738070716954,0.00002514812907654982 -0.011316658084447345,0.00007544438722964936 -0.014711655509781565,0 c-0.007544438722964917,-0.0004903885169927201 -0.016597765190522817,-0.0012574064538274838 -0.024519425849635946,0.002514812907654972 c-0.027285720048056405,-0.00020118503261239788 -0.05142792396154421,-0.013454249055954102 -0.07858790336421777,-0.014711655509781565 c-0.014334433573633296,-0.0004652403879161704 -0.027411460693439194,0 -0.04174589426707259,0 h-0.04174589426707259 c-0.09908362856160566,0.018232393580498545 -0.1992360526089649,0.0309321987641561 -0.2996148098180131,0.04174589426707259 c-0.0037722193614824623,0.00036464787160997073 -0.011316658084447345,0.010059251630619884 -0.014711655509781565,0.010059251630619884 c-0.002514812907654972,0.0009933510985237143 -0.0037722193614824623,-0.0012574064538274838 -0.005029625815309942,0.002514812907654972 c-0.012574064538274834,0.008801845176792403 -0.027285720048056405,0.015969061963609074 -0.03923108135941757,0.024519425849635946 c-0.017729430998967524,0.012574064538274834 -0.038225156196355636,0.020244243906622487 -0.05645754977685401,0.0319381239272181 c-0.010059251630619884,0.006287032269137439 -0.0192383187435605,0.013705730346719597 -0.02942331101956315,0.019615540679708724 c-0.018986837452795006,0.02892034843803218 -0.04677552008238248,0.04979329557156841 -0.06878013302436348,0.07619883110194547 v0.002514812907654972 c-0.014208692928250577,0.026154054239611632 -0.02653127617575993,0.05293681170613719 -0.04174589426707259,0.07858790336421777 c-0.016094802608991803,0.027411460693439194 -0.03483015877102138,0.05406847751458196 -0.0515536646069269,0.0809769756264901 c-0.012574064538274834,0.019992762615857036 -0.024645166495018685,0.039356822004800285 -0.03684200909714525,0.05897236268450894 c-0.0012574064538274836,0.008801845176792403 -0.0037722193614824623,0.022507575523512017 -0.005029625815309942,0.02703423875729091 c-0.0037722193614824623,0.025399610367315178 -0.011316658084447345,0.0507992207346304 -0.014711655509781565,0.07607309045656283 c0.0037722193614824623,0.1007182569515816 0.008801845176792403,0.2014113657740866 0.014711655509781565,0.3020667524029767 c0.0037722193614824623,0.012574064538274834 0.007544438722964917,0.02401646326810494 0.010059251630619884,0.03684200909714525 c0.013705730346719597,0.05532588396840945 0.027411460693439194,0.1122863963267942 0.019615540679708724,0.16946066778232957 c0.006287032269137439,0.010059251630619884 0.01546609938207804,0.019364059388943245 0.01722646841743655,0.02942331101956315 c0.0012574064538274836,0.007544438722964917 -0.0010059251630619894,0.012825545829040356 -0.002514812907654972,0.01722646841743655 v0.002514812907654972 c0.008801845176792403,0.016094802608991803 0.008801845176792403,0.010059251630619884 0.012574064538274834,0.024519425849635946 c0.008801845176792403,0.02703423875729091 0.016094802608991803,0.05582884654994036 0.022130353587363732,0.08349178853414496 c0.0012574064538274838,0.008801845176792403 0.002514812907654972,0.016220543254374546 0.005029625815309942,0.024519425849635946 c0.0012574064538274836,0.006287032269137439 0.002514812907654972,0.01307702711980583 0.005029625815309942,0.019615540679708724 c0.002514812907654972,0.006287032269137439 0.0037722193614824623,0.01307702711980583 0.005029625815309942,0.019615540679708724 c0.0012574064538274836,0.002514812907654972 0.0037722193614824623,-0.0003394997425334216 0.005029625815309942,0.002514812907654972 c0.019489800034326023,0.03545886199793505 0.008801845176792403,0.017477949708202045 0.0319381239272181,0.05897236268450894 c0.007544438722964917,0.014082952282867805 0.0008173141949878651,0.02112442842430177 -0.002514812907654972,0.02942331101956315 c0.002514812907654972,0.0006412772914520151 0.005029625815309942,0.002514812907654972 0.005029625815309942,0.002514812907654972 c0.4885149813765152,0.8644543629418554 1.0238054828354102,1.7110661283038966 1.5717580672843492,2.5516423426875656 c0.021250169069684525,0.01546609938207804 0.047404223309296195,0.027411460693439194 0.06626532011670855,0.04664977943699976 c0.005029625815309942,-0.008801845176792403 0.034075714898724886,0.05834365945759528 0.04664977943699976,0.0860066014417999 c0.011316658084447345,0.005029625815309942 0.08135419756263841,0.08349178853414496 0.0860066014417999,0.08839567370407213 c0.03156090199106988,0.022884797459660242 0.0515536646069269,0.06563661688979473 0.08349178853414496,0.08839567370407213 c0.002514812907654972,0.0012574064538274836 0.0003394997425334216,-0.012574064538274834 0,-0.014711655509781565 c0.020998687778919032,0.01798091228973301 0.048158667181592715,0.03319553038104561 0.06626532011670855,0.05406847751458196 c0.020747206488153504,0.02376498197733947 0.03168664263645259,0.05230810847922339 0.04916459234465473,0.07858790336421777 c0.010059251630619884,0.01697498712667107 0.01735220906281932,0.03621330587023154 0.02942331101956315,0.0515536646069269 c0.002514812907654972,0.0037722193614824623 0.010059251630619884,-0.0012574064538274838 0.014711655509781565,0.002514812907654972 c0.016346283899757334,0.01357998970133683 0.03168664263645259,0.031435161345687114 0.04664977943699976,0.04664977943699976 c0.0413686723309243,0.04237459749398618 0.07217513044969749,0.07821068142806946 0.10562214212150858,0.12770219945071906 c0.03973404394094855,0.05306255235151989 0.06563661688979473,0.12083676021282126 0.10801121438378075,0.1719126103672936 c0.005029625815309942,0.005029625815309942 0.011316658084447345,0.010059251630619884 0.01722646841743655,0.014711655509781565 c0.01722646841743655,0.015591840027460788 0.03545886199793505,0.03483015877102138 0.0515536646069269,0.0515536646069269 c0.06802568915206697,0.05557736525917494 0.09782622210777825,0.14354552076894553 0.1620922659629008,0.20138621764501008 c0.028040163920352933,0.07821068142806946 0.07607309045656283,0.13625256333674624 0.12033379763129028,0.2038381602299734 l0.014711655509781565,0.002514812907654972 c0.013831470992102338,0.010059251630619884 0.026908498111908152,0.018483874871264013 0.04174589426707259,0.02942331101956315 c0.03923108135941757,0.020118503261239765 0.06789994850668422,0.05142792396154421 0.09820344404392663,0.08349178853414496 c0.011316658084447345,0.011316658084447345 0.021627391005832722,0.020495725197388046 0.0319381239272181,0.0319381239272181 c0.018232393580498545,0.020244243906622487 0.035333121352552274,0.04400922588396203 0.05406847751458196,0.06387624785443627 c0.04589533556470321,0.048535889117740975 0.10373603244076732,0.08185716014416934 0.14980740490900657,0.1301667161002209 c0.020747206488153504,0.021753131651215535 0.04237459749398618,0.04275181943013445 0.06136143494678123,0.07116920528663553 c0.019992762615857036,0.019867021970474224 0.03797367490559005,0.03847663748712102 0.05897236268450894,0.05645754977685401 c0.14291681754203175,0.062493100755226016 0.2796346212666939,0.21826061225537435 0.37575077059726636,0.3266364745107653 c-0.030429236182625094,-0.1733083315310423 0.33347676561958695,0.3968626249570308 0.2357637100926531,0.2431321119120822 c0.0909104866117271,0.07896512530036613 0.1766781808272994,0.16632972571229937 0.2603208581359031,0.2529524563164743 c0.0563318091314714,0.06890587366974638 0.135649008238909,0.11819620665978352 0.1891013565911154,0.1891013565911154 c0.04212311620322079,0.055954587195323084 0.07506716529350074,0.11983083504975942 0.11542991246136314,0.17682906960175884 c0.007544438722964917,0.011316658084447345 -0.011316658084447345,-0.0279144232749702 -0.01722646841743655,-0.03923108135941757 c-0.002514812907654972,-0.011316658084447345 0.03382423360795941,0.04551811362855496 0.0515536646069269,0.07116920528663553 c0.010059251630619884,0.006287032269137439 0.023639241331956717,0.01722646841743655 0.0319381239272181,0.022130353587363732 c0.018609615516646784,0.011316658084447345 0.1087656582560772,0.1343916017850813 0.13261865868518463,0.16700872519736654 c0.06349902591828813,0.06500791366288082 0.1320402517164239,0.12498620151045199 0.19646975841054465,0.1891013565911154 c0.02766294198420472,0.047655704600061605 0.08613234208718279,0.07557012787503191 0.11542991246136314,0.12284861053894539 c0.10109547888772978,0.16119950738068384 0.1543843644009385,0.2830673408856424 0.07858790336421777,0.11542991246136314 c0.14641240748367235,0.08852141434945499 0.2657277058873616,0.21670142825262825 0.3782027131822306,0.34382522073458704 c0.1112804711637322,0.11379528407138734 0.22634573575348513,0.2214669987126341 0.3389087615001214,0.3339923022656566 c0.15258627317196488,0.11505269052521473 0.2321549535701683,0.2770569380363476 0.3290884170957287,0.4346979851526992 c0.005029625815309942,0.007544438722964917 0.012574064538274834,0.012574064538274834 0.01722646841743655,0.019615540679708724 c0.03156090199106988,0.04325478201166551 0.058720881393743554,0.09053326467557883 0.08839567370407213,0.1350706012701481 c0.02489664778578411,0.03281830844489735 0.047404223309296195,0.06639106076209127 0.07368401819429055,0.09820344404392663 c0.09141344919325817,0.1101488053552877 0.12335157312047591,0.18537943348778577 0.16699615113282823,0.26277280072086767 c0.10348455115000195,0.07041476141433904 0.19292387221075155,0.15928824957086557 0.28734252282865613,0.24068016932711894 c0.026154054239611632,0.022507575523512017 0.05985254720218834,0.03621330587023154 0.08349178853414496,0.06136143494678123 c0.054445699450730134,0.057714956230681555 0.0997123317885194,0.12272286989356242 0.14980740490900657,0.18418489735665003 c0.11555565310674575,0.15495019730516063 0.2392215778406783,0.3039780102127942 0.36101396695840837,0.45433867396148386 l0.014711655509781565,0.014711655509781565 c0.03709349038791083,0.02942331101956315 0.061487175592163996,0.07054050205972198 0.09581437178165435,0.1007182569515816 c0.026908498111908152,0.024393685204253168 0.0534397742876681,0.047655704600061605 0.07858790336421777,0.07368401819429055 c0.005029625815309942,0.005029625815309942 0.019867021970474224,0.018986837452795006 0.014711655509781565,0.014711655509781565 c0.026154054239611632,0.018735356162029475 0.013705730346719597,0.002514812907654972 0.06878013302436348,0.06387624785443627 c0.03860237813250381,0.037470712324059005 0.060858472365250146,0.07204938980431493 0.08349178853414496,0.12523768280121747 c-0.005029625815309942,-0.011316658084447345 -0.02401646326810494,-0.03445293683487315 -0.014711655509781565,-0.0319381239272181 c0.012574064538274834,0.002514812907654972 0.08663530466871358,0.1341149723652391 0.08839567370407213,0.1375225438551119 c0.002514812907654972,0.007544438722964917 0.014711655509781565,0.014334433573633296 0.014711655509781565,0.01722646841743655 c0.0001257406453827491,0.0007670179368347638 0.014711655509781565,0.01571758067284355 0.014711655509781565,0.014711655509781565 c0.0012574064538274836,0.0011190917439064605 0.012574064538274834,0.013454249055954102 0.014711655509781565,0.014711655509781565 c0.005029625815309942,0.0037722193614824623 0.007544438722964917,0.010059251630619884 0.012574064538274834,0.014711655509781565 c-0.006287032269137439,-0.013705730346719597 -0.011316658084447345,-0.021753131651215535 -0.01722646841743655,-0.0319381239272181 c0.012574064538274834,0.016472024545140015 0.024770907140401446,0.03508164006178684 0.03684200909714525,0.0515536646069269 l0.014711655509781565,0.002514812907654972 c0.005029625815309942,0.006287032269137439 0.010059251630619884,0.014082952282867805 0.01722646841743655,0.022130353587363732 c0.022759056814277468,0.01320276776518859 0.06538513559902924,0.05017051750771653 0.07858790336421777,0.07368401819429055 c0.010059251630619884,0.018358134225881246 0.014963136800547054,0.03885385942326928 0.022130353587363732,0.05897236268450894 c0.007544438722964917,0.010059251630619884 0.01722646841743655,0.019615540679708724 0.024519425849635946,0.02942331101956315 l0.014711655509781565,0.002514812907654972 c0.0037722193614824623,0.005029625815309942 0.010059251630619884,0.011316658084447345 0.014711655509781565,0.01722646841743655 c0.023010538105042964,0.030806458118773347 0.04363200394781379,0.06387624785443627 0.06878013302436348,0.09329955887399942 c0.07670179368347663,0.14481550128731127 0.23153882440779308,0.22453507045997373 0.31926807269133606,0.36101396695840837 c0.016597765190522817,0.025776832303463434 0.02854312650188384,0.05117644267077862 0.04174589426707259,0.07858790336421777 c0.0309321987641561,0.039859784586331264 0.04287756007551728,0.05582884654994036 0.07368401819429055,0.1007182569515816 c0.006287032269137439,0.008801845176792403 0.02238183487812921,0.03885385942326928 0.01722646841743655,0.02942331101956315 c-0.020495725197388046,-0.03784793426020729 -0.005029625815309942,-0.02238183487812921 -0.03684200909714525,-0.04664977943699976 c-0.005029625815309942,-0.0037722193614824623 -0.010059251630619884,0.0012574064538274838 -0.014711655509781565,-0.007544438722964917 c0.008801845176792403,0.026405535530377174 0.01357998970133683,0.052685330415371635 0.03684200909714525,0.07368401819429055 c0.05067348008924762,0.03005201424647687 0.06551087624441197,0.061487175592163996 0.10801121438378075,0.11052602729143596 c0.007544438722964917,0.011316658084447345 0.018986837452795006,0.02062146584277079 0.02703423875729091,0.0319381239272181 c0.01722646841743655,0.021250169069684525 0.020998687778919032,0.04677552008238248 0.03684200909714525,0.06878013302436348 c0.0012448323892892115,0.002514812907654972 0.012574064538274834,-0.0012574064538274838 0.014711655509781565,0 c0.011316658084447345,0.010059251630619884 0.017477949708202045,0.022507575523512017 0.02703423875729091,0.03432719618949033 l0.014711655509781565,0.012574064538274834 c0.01357998970133683,0.010059251630619884 0.02489664778578411,0.020369984552005144 0.03684200909714525,0.0319381239272181 c0.05431995880534733,0.05142792396154421 0.06953457689665982,0.1286452542910893 0.12523768280121747,0.1719126103672936 c0.05193088654307511,0.03483015877102138 0.08361752917952771,0.08449771369720685 0.11052602729143596,0.1399744864400753 c0.0037722193614824623,0.006287032269137439 0.010059251630619884,0.014963136800547054 0.014711655509781565,0.019615540679708724 v0.012574064538274834 c0.02703423875729091,0.028291645211118446 0.056583290422236816,0.06010402849295386 0.06626532011670855,0.09329955887399942 c0.0004652403879161704,0.0012574064538274838 -0.00045266632337789446,0.012574064538274834 0,0.014711655509781565 c0.020118503261239765,0.025022388431166984 0.04589533556470321,0.043129041366282775 0.06878013302436348,0.08110271627187271 c0.008801845176792403,0.012574064538274834 0.008801845176792403,0.006287032269137439 0.03684200909714525,0.06387624785443627 c0.005029625815309942,0.011316658084447345 -0.014711655509781565,-0.019992762615857036 -0.014711655509781565,-0.0319381239272181 c-0.00016346283899757315,-0.005029625815309942 0.011316658084447345,0.011316658084447345 0.014711655509781565,0.014711655509781565 c0.005029625815309942,0.0037722193614824623 0.011316658084447345,0.010059251630619884 0.014711655509781565,0.014711655509781565 c0.006287032269137439,0.010059251630619884 0.011316658084447345,0.01697498712667107 0.01722646841743655,0.02703423875729091 c0.006287032269137439,-0.0037722193614824623 0.08902437693098586,0.0971975188808646 0.09329955887399942,0.1031073292138536 c0.0309321987641561,0.018609615516646784 0.04501515104702405,0.0505477394438649 0.06387624785443627,0.07858790336421777 c0.0012448323892892115,0.0012574064538274838 -0.0012574064538274836,-0.012574064538274834 0,-0.014711655509781565 c0.000389796000686521,-0.0037722193614824623 0.012574064538274834,0.012574064538274834 0.014711655509781565,0.014711655509781565 c0.012951286474423084,0.021501650360449945 0.06425346979058456,0.049290332990037336 0.07368401819429055,0.07116920528663553 c0.013454249055954102,0.031309420700304375 0.08412049176105867,0.22572960659110955 0.014711655509781565,0.022130353587363732 c0.0037722193614824623,0.006287032269137439 0.010059251630619884,0.013831470992102338 0.014711655509781565,0.019615540679708724 c0.012574064538274834,0.011316658084447345 0.02401646326810494,0.025525351012697945 0.03684200909714525,0.03684200909714525 c0.006287032269137439,0.006287032269137439 -0.023136278750425756,-0.019112578098177794 -0.014711655509781565,-0.019615540679708724 c0.019615540679708724,-0.0012574064538274836 0.07494142464811797,0.07368401819429055 0.08349178853414496,0.08349178853414496 c0.0037722193614824623,0.010059251630619884 0.011316658084447345,0.01722646841743655 0.014711655509781565,0.02703423875729091 v0.014711655509781565 c0.0012448323892892115,0.005029625815309942 0.012574064538274834,0.010059251630619884 0.014711655509781565,0.014711655509781565 c0.020118503261239765,0.027285720048056405 0.0319381239272181,0.039608303295565715 0.0515536646069269,0.07116920528663553 c0.03835089684173834,0.020118503261239765 0.05507440267764398,0.03809941555097281 0.09581437178165435,0.08110271627187271 c0.01722646841743655,0.030177754891859625 0.018483874871264013,0.04375774459319657 0.024519425849635946,0.06136143494678123 l0.014711655509781565,0.010059251630619884 h0.014711655509781565 c0.010059251630619884,0.008801845176792403 0.01697498712667107,0.014082952282867805 0.02703423875729091,0.022130353587363732 c0.0037722193614824623,0.005029625815309942 0.011316658084447345,0.010059251630619884 0.014711655509781565,0.014711655509781565 c0.016346283899757334,0.012574064538274834 0.03156090199106988,0.03281830844489735 0.04664977943699976,0.04664977943699976 c0.01307702711980583,0.014460174219016072 0.02376498197733947,0.028417385856501214 0.03684200909714525,0.04174589426707259 c0.010059251630619884,0.008801845176792403 -0.016094802608991803,-0.021627391005832722 -0.024519425849635946,-0.0319381239272181 c0.0733067962581423,0.04539237298317218 0.08147993820802091,0.0983291846893093 0.1375225438551119,0.15717580672843542 c0.026908498111908152,0.06010402849295386 0.06551087624441197,0.09732325952624742 0.11542991246136314,0.1375225438551119 c0.05431995880534733,0.043003300720900035 0.07506716529350074,0.11040028664605307 0.1031073292138536,0.1719126103672936 c0.006287032269137439,0.002514812907654972 0.011316658084447345,0.011316658084447345 0.022130353587363732,0.014711655509781565 c0.11329232148985638,0.05960106591142279 0.10738251115686714,0.05356551493305087 0.2210269064537952,0.1645442085478645 c0.006287032269137439,0.006287032269137439 0.008801845176792403,0.011316658084447345 0.019615540679708724,0.022130353587363732 l0.014711655509781565,0.014711655509781565 c-0.0008424623240644148,-0.0005155366460692701 0.014711655509781565,0.014711655509781565 0.014711655509781565,0.014711655509781565 l0.014711655509781565,0.014711655509781565 h0.012574064538274834 v0.014711655509781565 c0.007544438722964917,0.010059251630619884 0.011316658084447345,0.01320276776518859 0.019615540679708724,0.022130353587363732 c0.0475299639546789,0.03809941555097281 0.04501515104702405,0.02703423875729091 0.0319381239272181,0.014711655509781565 h0.014711655509781565 c0.12858238396839813,0.0797195691726624 0.2044668634568872,0.13888054282524534 0.30944772828694406,0.277509604359726 c-0.010059251630619884,-0.012951286474423084 -0.02879460779264944,-0.021753131651215535 -0.0319381239272181,-0.03684200909714525 c-0.002514812907654972,-0.012574064538274834 0.01785517164435026,0.018106652935115784 0.02703423875729091,0.02703423875729091 c0.02879460779264944,0.02753720133882191 0.07795920013730402,0.07003753947819091 0.07858790336421777,0.07858790336421777 c0.03696774974252809,0.022004612941981017 0.07267809303122848,0.041494412976306974 0.10562214212150858,0.06878013302436348 c0.06274458204599148,0.05230810847922339 0.20540991829725774,0.2884113183144096 0.2357637100926531,0.3610013928938703 c0.0011819620665978376,0.002514812907654972 0.012574064538274834,0.011316658084447345 0.014711655509781565,0.014711655509781565 c0.04162015362168979,0.04275181943013445 0.0860066014417999,0.0827373446618487 0.12771477351525742,0.12523768280121747 c0.06651680140747386,0.0795938285272797 0.15081333007206849,0.14021339366630284 0.21856238980429296,0.21857496386883113 c0.028417385856501214,0.03281830844489735 0.09304807758323363,0.1419863367661993 0.14980740490900657,0.17682906960175884 c0.010059251630619884,0.006287032269137439 0.02489664778578411,0.012574064538274834 0.03684200909714525,0.014711655509781565 c0.04237459749398618,0.033447011671811175 0.0827373446618487,0.06739698592515324 0.12523768280121747,0.1007182569515816 c0.039356822004800285,0.041242931685541606 0.08185716014416934,0.0795938285272797 0.11542991246136314,0.12523768280121747 c0.11505269052521473,0.1535921983350269 0.14697824038789437,0.23900781874352794 0.2210269064537952,0.39048757423612507 c0.007544438722964917,0.010059251630619884 0.014334433573633296,0.017100727772053823 0.022130353587363732,0.02703423875729091 c0.0037722193614824623,0.006287032269137439 0.010059251630619884,0.013705730346719597 0.014711655509781565,0.019615540679708724 c0.011316658084447345,0.015088877445929823 0.026028313594228913,0.02665701682114267 0.03684200909714525,0.04174589426707259 c0.013705730346719597,0.017729430998967524 0.024393685204253168,0.03545886199793505 0.03684200909714525,0.05406847751458196 c0.011316658084447345,0.014837396155164315 0.018861096807412287,0.034578677480255886 0.02703423875729091,0.0515536646069269 c0.0037722193614824623,0.002514812907654972 0.012574064538274834,0.012574064538274834 0.014711655509781565,0.014711655509781565 c0.001018499227600263,0.001068795485753361 0.006287032269137439,0.011316658084447345 0.010059251630619884,0.014711655509781565 v0.014711655509781565 h0.005029625815309942 c0.017100727772053823,0.01735220906281932 0.03206386457260088,0.03897960006865212 0.04916459234465473,0.05645754977685401 c0.0037722193614824623,0.006287032269137439 0.012574064538274834,0.010059251630619884 0.014711655509781565,0.014711655509781565 c0.008801845176792403,0.010059251630619884 0.012951286474423084,0.022130353587363732 0.022130353587363732,0.0319381239272181 c0.0319381239272181,0.02489664778578411 0.06676828269823937,0.05029625815309936 0.09329955887399942,0.07858790336421777 c0.0706662427051046,0.07267809303122848 -0.024393685204253168,-0.024645166495018685 0.06387624785443627,0.0909104866117271 c0.0011945361311361121,0.0012574064538274836 0.012574064538274834,-0.014711655509781565 0.014711655509781565,-0.014711655509781565 c0.008801845176792403,0.0037722193614824623 0.016723505835905518,0.011316658084447345 0.024519425849635946,0.01722646841743655 c0.002514812907654972,0.002514812907654972 0.012574064538274834,0.013454249055954102 0.014711655509781565,0.014711655509781565 c0.008801845176792403,0.007544438722964917 0.017729430998967524,0.015088877445929823 0.02703423875729091,0.022130353587363732 c0.04803292653620994,0.04715274201853065 0.0919164117747892,0.09770048146239582 0.13998706050461357,0.144890945674541 c0.010059251630619884,0.010059251630619884 0.021753131651215535,0.0192383187435605 0.0319381239272181,0.02942331101956315 c0.010059251630619884,0.010059251630619884 0.018232393580498545,0.01546609938207804 0.02703423875729091,0.02703423875729091 c0.0037722193614824623,0.005029625815309942 0.05431995880534733,0.08902437693098586 0.06626532011670855,0.09581437178165435 c0.06375050720905347,0.032315345863366325 0.07783345949192122,0.061990138173695114 0.07858790336421777,0.08349178853414496 c0.01722646841743655,0.010059251630619884 0.034955899416404104,0.016723505835905518 0.04664977943699976,0.0319381239272181 c0.019992762615857036,0.026154054239611632 0.030806458118773347,0.051679405252309796 0.04426070717472747,0.07858790336421777 c0.04174589426707259,0.02401646326810494 0.08336604788876248,0.06475643237211552 0.1031073292138536,0.07858790336421777 c-0.012825545829040356,-0.013454249055954102 0.010059251630619884,0.02879460779264944 0.014711655509781565,0.03445293683487315 c0.010059251630619884,0.006287032269137439 0.015843321318226296,0.010059251630619884 0.022130353587363732,0.014711655509781565 c0.04325478201166551,0.034075714898724886 0.07821068142806946,0.07393549948505618 0.10562214212150858,0.12033379763129028 c0.007544438722964917,0.01332850841057133 -0.01798091228973301,-0.024770907140401446 -0.02703423875729091,-0.03684200909714525 c0.036087565224848746,0.01785517164435026 0.06362476656367093,0.04941607363542022 0.1007182569515816,0.08839567370407213 c0.008801845176792403,0.015843321318226296 0.020118503261239765,0.030680717473390604 0.02942331101956315,0.04664977943699976 c0.0037722193614824623,0.002514812907654972 0.008801845176792403,0.013454249055954102 0.012574064538274834,0.014711655509781565 c0.0222560942327465,0.011316658084447345 0.04576959491932044,0.027411460693439194 0.06626532011670855,0.04174589426707259 c0.02653127617575993,0.04073996910401049 0.016597765190522817,0.04325478201166551 0.022130353587363732,0.0515536646069269 c0.02665701682114267,0.028291645211118446 0.05708625300376773,0.05532588396840945 0.08349178853414496,0.08349178853414496 c0.020495725197388046,0.014963136800547054 0.03973404394094855,0.033572752317193956 0.06136143494678123,0.04664977943699976 c0.15733926956743277,0.09594011242703707 0.016723505835905518,-0.022759056814277468 0.23085982492272586,0.13998706050461357 c0.15614473343629662,0.11869916924131446 0.29497498000338923,0.2515693092172641 0.42731700926873134,0.395391459406052 c0.035961824579466034,0.07003753947819091 0.13183906668381148,0.09594011242703707 0.17682906960175884,0.15717580672843542 c0.02980053295571142,0.04048848781324502 0.058217918812212624,0.08424623240644143 0.08349178853414496,0.12770219945071906 c0.03998552523171408,0.03684200909714525 0.0413686723309243,0.03218960521798362 0.09581437178165435,0.11052602729143596 c0.018861096807412287,0.027159979402673673 0.008801845176792403,0.03156090199106988 0.014711655509781565,0.04916459234465473 c0.007544438722964917,0.007544438722964917 0.01534035873669533,0.002514812907654972 0.022130353587363732,0.014711655509781565 c0.04111719104015874,0.07619883110194547 0.026028313594228913,0.049541814280802794 0.06626532011670855,0.12033379763129028 c0.0008550363886026879,0.0012574064538274838 0.011316658084447345,0.006287032269137439 0.012574064538274834,0.007544438722964917 c0.0827373446618487,0.024267944558870474 0.16324907990042223,0.07594734981118018 0.21612302128386737,0.18173295477168638 c0.11517843117059769,0.23030656608304206 0.09682029694471644,0.20733375017161343 0.10562214212150858,0.23084725085818775 c0.0012574064538274836,0.002514812907654972 0.012574064538274834,0.029674792310328643 0.012574064538274834,0.019615540679708724 c0.020118503261239765,0.026154054239611632 0.04476366975625852,0.043003300720900035 0.06626532011670855,0.06387624785443627 c0.0037722193614824623,0.002514812907654972 0.011316658084447345,-0.00025148129076549763 0.014711655509781565,0.005029625815309942 h0.005029625815309942 c0.002514812907654972,0.0012574064538274836 0.015214618091312561,0.011316658084447345 0.014711655509781565,0.012574064538274834 c0.0011945361311361121,0.0006915735496051156 0.011316658084447345,-0.0008550363886026879 0.014711655509781565,0.007544438722964917 c0.0037722193614824623,0.0037722193614824623 0.011316658084447345,0.010059251630619884 0.014711655509781565,0.014711655509781565 c0.0012448323892892115,0.0012574064538274838 0.013454249055954102,0.012574064538274834 0.014711655509781565,0.014711655509781565 c0.002514812907654972,0.0037722193614824623 0.011316658084447345,0.011316658084447345 0.014711655509781565,0.014711655509781565 h0.014711655509781565 c0.007544438722964917,0.008801845176792403 0.015591840027460788,0.014585914864398792 0.01722646841743655,0.01722646841743655 c0.0012448323892892115,0.002514812907654972 0.0005658329042223697,0.013454249055954102 0,0.014711655509781565 c0.0012448323892892115,-0.0012574064538274838 0.013454249055954102,0.0001005925163061992 0.014711655509781565,-0.005029625815309942 c0.04048848781324502,0.019992762615857036 0.07054050205972198,0.05545162461379218 0.1007182569515816,0.08839567370407213 c0.005029625815309942,0.002514812907654972 0.011316658084447345,0.010059251630619884 0.014711655509781565,0.014711655509781565 c0.007544438722964917,0.0037722193614824623 0.015088877445929823,0.007544438722964917 0.022130353587363732,0.012574064538274834 c0.014585914864398792,0.010059251630619884 0.028165904565735693,0.023262019395808464 0.04174589426707259,0.03432719618949033 c0.012574064538274834,0.007544438722964917 0.026028313594228913,0.012574064538274834 0.03684200909714525,0.022130353587363732 c0.05067348008924762,0.0475299639546789 0.05281107106075436,0.07091772399587018 0.0515536646069269,0.05645754977685401 c0.002514812907654972,0.002514812907654972 0.012574064538274834,0.013454249055954102 0.014711655509781565,0.014711655509781565 c0.03734497167867625,0.024645166495018685 0.0623673601098432,0.06022976913833648 0.1007182569515816,0.08349178853414496 c0.021375909715067226,0.020747206488153504 0.04438644782011019,0.046021076210085984 0.06626532011670855,0.06626532011670855 c0.039356822004800285,0.03621330587023154 0.07682753432885933,0.051679405252309796 0.12033379763129028,0.0809769756264901 c0.03860237813250381,0.02590257294884616 0.05582884654994036,0.046021076210085984 0.03684200909714525,0.024519425849635946 c0.02376498197733947,0.023639241331956717 0.04715274201853065,0.04325478201166551 0.06878013302436348,0.06878013302436348 c0.007544438722964917,0.008801845176792403 0.008801845176792403,0.022004612941981017 0.014711655509781565,0.0319381239272181 c0.008801845176792403,0.014585914864398792 0.03545886199793505,0.0319381239272181 0.04664977943699976,0.04174589426707259 c0.06676828269823937,0.046524038791616915 0.07267809303122848,0.06865439237898083 0.10562214212150858,0.14980740490900657 c0.006287032269137439,0.014585914864398792 -0.010059251630619884,-0.02778868262958749 -0.01722646841743655,-0.04174589426707259 c0.17026540791278,0.12849436551663043 0.30830348841396077,0.2966976268451333 0.4445057554925536,0.4592551331959488 c0.01760369035358479,0.025525351012697945 0.031435161345687114,0.05281107106075436 0.04916459234465473,0.07858790336421777 c0.002514812907654972,0.002514812907654972 0.03545886199793505,0.06022976913833648 0.06136143494678123,0.10562214212150858 c0.012825545829040356,0.010059251630619884 0.02489664778578411,0.019112578098177794 0.03684200909714525,0.02942331101956315 c0.006287032269137439,0.005029625815309942 -0.002514812907654972,0.011316658084447345 0,0.014711655509781565 l0.014711655509781565,0.014711655509781565 c0.0012574064538274836,0.0009556289049088885 0.010059251630619884,0.011316658084447345 0.012574064538274834,0.012574064538274834 l0.014711655509781565,0.014711655509781565 v0.014711655509781565 c0.008801845176792403,0.007544438722964917 0.014711655509781565,0.014334433573633296 0.022130353587363732,0.022130353587363732 c0.01534035873669533,0.016472024545140015 0.031435161345687114,0.03483015877102138 0.04664977943699976,0.0515536646069269 c0.04174589426707259,0.03382423360795941 0.06865439237898083,0.08009679110881096 0.1031073292138536,0.12033379763129028 c0.023136278750425756,0.02703423875729091 0.0795938285272797,0.06601383882594289 0.10562214212150858,0.08839567370407213 c0.056583290422236816,0.0606069910744848 0.13622741520766943,0.12008231634052492 0.18664941400615168,0.18664941400615168 c0.014585914864398792,0.0192383187435605 0.02351350068657392,0.03910534071403476 0.03684200909714525,0.05897236268450894 c0.04803292653620994,0.11731602214210426 0.15241023626842923,0.1966960915722336 0.2283953082732239,0.2947109246480853 c0.015214618091312561,0.019615540679708724 0.02766294198420472,0.03847663748712102 0.04174589426707259,0.05897236268450894 c0.007544438722964917,0.011316658084447345 0.016472024545140015,0.02401646326810494 0.022130353587363732,0.03684200909714525 c0.007544438722964917,0.016346283899757334 0.014963136800547054,0.034955899416404104 0.019615540679708724,0.0515536646069269 c0.026908498111908152,0.0279144232749702 0.06010402849295386,0.08512641692412085 0.07858790336421777,0.11542991246136314 c0.06098421301063308,0.1351711937864545 0.14125704102297934,0.2586359334877749 0.20875461946443852,0.39048757423612507 c0.010059251630619884,0.015214618091312561 0.010059251630619884,0.03508164006178684 0.01722646841743655,0.0515536646069269 c0.03998552523171408,0.04941607363542022 0.07833642207345225,0.09870640662545775 0.12033379763129028,0.14243900308957727 c0.016220543254374546,0.01697498712667107 0.03923108135941757,0.030806458118773347 0.05645754977685401,0.04664977943699976 c0.0222560942327465,0.02062146584277079 0.042248856848603515,0.04262607878475171 0.06387624785443627,0.06387624785443627 c0.08236012272570019,0.07544438722964887 0.14144565199105352,0.17070550017161937 0.19401781582558056,0.2677018340198714 c0.030303495537242382,0.055954587195323084 0.011316658084447345,0.02753720133882191 0.03684200909714525,0.05897236268450894 c0.08361752917952771,0.04991903621695108 0.13352399133194032,0.13714532191896356 0.2013736435804717,0.2038381602299734 c0.016094802608991803,0.019112578098177794 0.035333121352552274,0.03734497167867625 0.0515536646069269,0.05645754977685401 c0.06123569430139866,0.07204938980431493 0.0336984929625767,0.031435161345687114 0.09329955887399942,0.11542991246136314 c0.018232393580498545,0.026154054239611632 0.029046089083414908,0.049541814280802794 0.05406847751458196,0.06878013302436348 c0.04614681685546871,0.03809941555097281 0.05985254720218834,0.09166493048402348 0.08839567370407213,0.1399744864400753 c0.005029625815309942,0.008801845176792403 0.018106652935115784,0.015843321318226296 0.024519425849635946,0.024519425849635946 c0.061487175592163996,0.08236012272570019 0.017100727772053823,0.04174589426707259 0.07619883110194547,0.0909104866117271 c0.0969460375900991,0.08764122983177577 0.15506336388600503,0.20342321610021033 0.2357637100926531,0.3045312690524779 c0.015969061963609074,0.016472024545140015 0.03520738070716946,0.03558460264331779 0.0515536646069269,0.0515536646069269 c0.01798091228973301,0.01760369035358479 0.03910534071403476,0.03332127102642834 0.05645754977685401,0.0515536646069269 c0.03696774974252809,0.03885385942326928 0.06349902591828813,0.08663530466871358 0.1007182569515816,0.12523768280121747 c0.022633316168894718,0.02351350068657392 0.05255958976998885,0.03923108135941757 0.07858790336421777,0.05897236268450894 c0.12999067919668497,0.08575512015103455 0.19941208951250103,0.22671038362509513 0.30698321163744174,0.3340048763301948 c0.039608303295565715,0.041494412976306974 0.06639106076209127,0.09732325952624742 0.11052602729143596,0.1350706012701481 c0.005029625815309942,0.005029625815309942 0.013705730346719597,0.011316658084447345 0.019615540679708724,0.014711655509781565 c0.04677552008238248,0.03671626845176253 0.07041476141433904,0.06186439752831228 0.11052602729143596,0.10562214212150858 c0.15083847820114482,0.15194499588051294 0.2799363988156122,0.3226253479230556 0.3782027131822306,0.5132858885169149 c0.043129041366282775,0.08374326982491043 0.07997105046342816,0.17270477643320503 0.12033379763129028,0.2578689155509401 c0.01785517164435026,0.031435161345687114 0.03734497167867625,0.0626188414006088 0.05645754977685401,0.09329955887399942 c0.015591840027460788,0.02514812907654966 0.03281830844489735,0.0538169962238164 0.04916459234465473,0.07858790336421777 c0.040865709749393374,0.06186439752831228 0.08047401304495916,0.12757645880533633 0.12523768280121747,0.18664941400615168 c0.046901260727765126,0.06186439752831228 0.09983807243390233,0.11983083504975942 0.14980740490900657,0.17928101218672265 c0.0413686723309243,0.04891311105388918 0.086509564023331,0.09329955887399942 0.1350706012701481,0.1350706012701481 c0.006287032269137439,0.006287032269137439 0.03784793426020729,0.031435161345687114 0.04174589426707259,0.03684200909714525 c0.01697498712667107,0.024645166495018685 0.031812383281835416,0.052685330415371635 0.04664977943699976,0.07858790336421777 c0.002514812907654972,0.005029625815309942 0.011316658084447345,0.010059251630619884 0.014711655509781565,0.014711655509781565 c0.010059251630619884,0.011316658084447345 0.018358134225881246,0.024393685204253168 0.02703423875729091,0.03684200909714525 c0.0037722193614824623,0.006287032269137439 0.010059251630619884,0.012574064538274834 0.014711655509781565,0.019615540679708724 c0.002514812907654972,0.0037722193614824623 0.012574064538274834,0.011316658084447345 0.014711655509781565,0.014711655509781565 l0.010059251630619884,0.005029625815309942 c0.002514812907654972,0.002514812907654972 0.010059251630619884,0.011316658084447345 0.012574064538274834,0.014711655509781565 c0.002514812907654972,-0.0004903885169927201 -0.00023890722622722194,-0.008801845176792403 0.005029625815309942,-0.007544438722964917 c0.006287032269137439,0.002514812907654972 0.011316658084447345,0.011316658084447345 0.014711655509781565,0.014711655509781565 h0.014711655509781565 h0.012574064538274834 c0.0012448323892892115,0.0005155366460692701 0.013454249055954102,-0.00025148129076549763 0.014711655509781565,0.005029625815309942 c0.0037722193614824623,0.002514812907654972 0.011316658084447345,0.012574064538274834 0.014711655509781565,0.014711655509781565 c0.005029625815309942,0.0037722193614824623 0.013705730346719597,0.010059251630619884 0.019615540679708724,0.014711655509781565 v0.002514812907654972 l0.002514812907654972,0.002514812907654972 c0.0037722193614824623,0.0037722193614824623 0.012574064538274834,0.013454249055954102 0.012574064538274834,0.014711655509781565 l0.002514812907654972,0.002514812907654972 c0.002514812907654972,0.002514812907654972 0.014711655509781565,0.013454249055954102 0.014711655509781565,0.014711655509781565 c0.0012448323892892115,0.0010813695502916358 0.007544438722964917,0.006287032269137439 0.014711655509781565,0.014711655509781565 c0.007544438722964917,0.005029625815309942 0.011316658084447345,0.008801845176792403 0.014711655509781565,0.014711655509781565 c0.007544438722964917,0.011316658084447345 0.022759056814277468,0.014711655509781565 0.02942331101956315,0.02703423875729091 c0.0037722193614824623,0.005029625815309942 0.005029625815309942,0.013705730346719597 0.007544438722964917,0.019615540679708724 l0.002514812907654972,0.002514812907654972 l0.014711655509781565,0.014711655509781565 c0.005029625815309942,0.002514812907654972 0.012574064538274834,0.011316658084447345 0.01722646841743655,0.014711655509781565 l0.014711655509781565,0.014711655509781565 l0.014711655509781565,0.014711655509781565 l0.014711655509781565,0.014711655509781565 c0.006287032269137439,0.008801845176792403 0.010059251630619884,0.007544438722964917 0.014711655509781565,0.012574064538274834 c0.0037722193614824623,0.0037722193614824623 0.007544438722964917,0.010059251630619884 0.014711655509781565,0.014711655509781565 v0.014711655509781565 c-0.0007292957432199397,-0.03244108650874902 0.06840291108821529,0.11454972794368375 0.05897236268450894,0.06878013302436348 c0.006287032269137439,0.008801845176792403 0.011316658084447345,0.013705730346719597 0.019615540679708724,0.022130353587363732 c0.012951286474423084,0.012574064538274834 0.02376498197733947,0.02489664778578411 0.03684200909714525,0.03684200909714525 c0.04174589426707259,0.03696774974252809 0.08839567370407213,0.0706662427051046 0.1301667161002209,0.10801121438378075 c0.04979329557156841,0.03835089684173834 0.07192364915893205,0.08085123498110716 0.10562214212150858,0.13261865868518463 c0.014963136800547054,0.018609615516646784 0.02703423875729091,0.036087565224848746 0.04174589426707259,0.05406847751458196 c0.012574064538274834,0.01320276776518859 0.024142203913487686,0.026154054239611632 0.03684200909714525,0.03923108135941757 c0.04727848266391349,0.048158667181592715 0.08072549433572453,0.07494142464811797 0.11542991246136314,0.1350706012701481 c0.0037722193614824623,0.007544438722964917 0.012574064538274834,0.01546609938207804 0.014711655509781565,0.022130353587363732 c0.08198290078955214,0.08738974854101021 0.13200252952280883,0.20012881119118245 0.2013736435804717,0.2971628672330493 c0.030429236182625094,0.04715274201853065 0.062241619464460475,0.09518566855474078 0.09329955887399942,0.14243900308957727 v0.007544438722964917 l0.012574064538274834,0.014711655509781565 c0.0012448323892892115,0.0037722193614824623 0.014711655509781565,0.014711655509781565 0.014711655509781565,0.014711655509781565 c0.022004612941981017,0.032692567799514655 0.04350626330243098,0.06576235753517749 0.06136143494678123,0.1007182569515816 c0.002514812907654972,0.005029625815309942 0.011316658084447345,0.011316658084447345 0.014711655509781565,0.014711655509781565 l0.014711655509781565,0.012574064538274834 c0.006287032269137439,0.005029625815309942 0.012574064538274834,0.008801845176792403 0.01722646841743655,0.014711655509781565 c0.027159979402673673,0.03256682715413197 0.041494412976306974,0.0691573549605115 0.06878013302436348,0.1007182569515816 c0.010059251630619884,0.008801845176792403 0.01546609938207804,0.021250169069684525 0.019615540679708724,0.02942331101956315 c0.10826269567454647,0.19360287169581797 0.06513365430826393,0.07707901561962474 0.0909104866117271,0.14980740490900657 c0.022004612941981017,0.09216789306555445 0.000917906711294064,-0.002514812907654972 0.0515536646069269,0.08349178853414496 c0.07380975883967317,0.1213397227943523 -0.006287032269137439,0.011316658084447345 0.05645754977685401,0.09581437178165435 c0.018232393580498545,0.024142203913487686 0.06588809818056009,0.06048125042910202 0.06878013302436348,0.08839567370407213 c0.006287032269137439,0.008801845176792403 0.014460174219016072,0.016094802608991803 0.022130353587363732,0.02703423875729091 c0.011316658084447345,0.022004612941981017 0.06840291108821529,0.16370174622380024 0.09329955887399942,0.1792684381221844 c0.03306978973566288,0.019867021970474224 0.07531864658426629,0.04664977943699976 0.09329955887399942,0.07858790336421777 c0.006287032269137439,0.010059251630619884 0.008801845176792403,0.02489664778578411 0.012574064538274834,0.03684200909714525 c0.0319381239272181,0.06173865688292961 0.08638382337794831,0.10851417696531193 0.11542991246136314,0.1719126103672936 c0.0037722193614824623,0.007544438722964917 0.011316658084447345,0.016220543254374546 0.014711655509781565,0.024519425849635946 c0.005029625815309942,0.008801845176792403 0.010059251630619884,0.011316658084447345 0.014711655509781565,0.01722646841743655 c0.021627391005832722,0.033572752317193956 0.03319553038104561,0.07494142464811797 0.0515536646069269,0.11052602729143596 v0.014711655509781565 c0.016220543254374546,0.026782757466525448 0.04413496652934469,0.04451218846549297 0.06387624785443627,0.06878013302436348 c0.002514812907654972,0.024770907140401446 0.010059251630619884,0.05406847751458196 0.014711655509781565,0.07858790336421777 c0.002514812907654972,0.0037722193614824623 0.012574064538274834,0.011316658084447345 0.014711655509781565,0.014711655509781565 c0.2956036832303033,0.3425552402162206 0.5778285617918819,0.6972444527118771 0.8620149944214313,1.0437479491931148 c0.008801845176792403,0.002514812907654972 0.01332850841057133,0.005029625815309942 0.022130353587363732,0.014711655509781565 c0.04036274716786227,0.03885385942326928 0.07871364400960039,0.08298882595261414 0.11542991246136314,0.12523768280121747 c0.03432719618949033,0.039608303295565715 0.04828440782697539,0.054571440096112825 0.08349178853414496,0.0909104866117271 c0.008801845176792403,0.008801845176792403 0.019992762615857036,0.02062146584277079 0.02942331101956315,0.02942331101956315 l0.014711655509781565,0.014711655509781565 c0.006287032269137439,0.0012574064538274838 0.013705730346719597,0.012574064538274834 0.019615540679708724,0.014711655509781565 c0.007544438722964917,0.002514812907654972 0.011316658084447345,0.010059251630619884 0.01722646841743655,0.014711655509781565 c0.01697498712667107,0.011316658084447345 0.04564385427393772,0.024770907140401446 0.06136143494678123,0.03684200909714525 c0.016346283899757334,0.012699805183657587 0.013454249055954102,0.024770907140401446 0.014711655509781565,0.03684200909714525 l0.014711655509781565,0.014711655509781565 c0.012574064538274834,0.015843321318226296 0.024393685204253168,0.030806458118773347 0.03684200909714525,0.04664977943699976 c0.014082952282867805,0.019112578098177794 0.006287032269137439,0.008801845176792403 0.024519425849635946,0.0319381239272181 c0.013454249055954102,0.01785517164435026 0.02376498197733947,0.03860237813250381 0.03684200909714525,0.05645754977685401 c0.0037722193614824623,0.005029625815309942 0.010059251630619884,0.010059251630619884 0.014711655509781565,0.014711655509781565 c0.011316658084447345,0.010059251630619884 0.026028313594228913,0.02351350068657392 0.03684200909714525,0.03432719618949033 c0.016094802608991803,0.016094802608991803 0.005029625815309942,0.007544438722964917 0.022130353587363732,0.022130353587363732 c0.006287032269137439,0.006287032269137439 0.013705730346719597,0.014963136800547054 0.019615540679708724,0.019615540679708724 c0.005029625815309942,0.0037722193614824623 0.011316658084447345,0.011316658084447345 0.014711655509781565,0.014711655509781565 c0.016597765190522817,0.01546609938207804 0.008801845176792403,0.008801845176792403 0.02703423875729091,0.024519425849635946 l0.014711655509781565,0.014711655509781565 c0.010059251630619884,0.0037722193614824623 0.017729430998967524,0.0012574064538274838 0.02703423875729091,0.014711655509781565 c0.002514812907654972,0.0037722193614824623 0.011316658084447345,0.010059251630619884 0.014711655509781565,0.014711655509781565 l0.012574064538274834,0.007544438722964917 l0.014711655509781565,0.014711655509781565 c0.002514812907654972,0.002514812907654972 0.014711655509781565,0.014585914864398792 0.014711655509781565,0.01722646841743655 l0.014711655509781565,0.014711655509781565 c0.0012448323892892115,0.007544438722964917 0.002514812907654972,0.0012574064538274838 0.014711655509781565,0.019615540679708724 c0.0037722193614824623,0.007544438722964917 0.010059251630619884,0.014963136800547054 0.014711655509781565,0.022130353587363732 c0.016849246481288313,0.01735220906281932 0.012574064538274834,0.015214618091312561 0.024519425849635946,0.04174589426707259 l0.014711655509781565,0.014711655509781565 c0.006287032269137439,0.005029625815309942 0.010059251630619884,0.010059251630619884 0.014711655509781565,0.01722646841743655 c0.022004612941981017,0.031435161345687114 0.04375774459319657,0.06551087624441197 0.06387624785443627,0.09820344404392663 c0.016597765190522817,0.021250169069684525 0.03520738070716946,0.04073996910401049 0.05897236268450894,0.05406847751458196 c0.0012448323892892115,0.0012574064538274838 0.011316658084447345,0.012574064538274834 0.010059251630619884,0.014711655509781565 c0.005029625815309942,0.0009682029694471656 0.010059251630619884,0.012574064538274834 0.014711655509781565,0.014711655509781565 c0.008801845176792403,0.0037722193614824623 0.019364059388943245,0.0192383187435605 0.02703423875729091,0.024519425849635946 c0.008801845176792403,0.011316658084447345 0.0012574064538274838,0.0037722193614824623 0.019615540679708724,0.01722646841743655 c0.0037722193614824623,0.0037722193614824623 0.010059251630619884,0.012574064538274834 0.014711655509781565,0.014711655509781565 c0.01697498712667107,0.012574064538274834 0.03734497167867625,0.021753131651215535 0.0515536646069269,0.03684200909714525 c0.018986837452795006,0.014585914864398792 0.010059251630619884,0.007544438722964917 0.0319381239272181,0.022130353587363732 c0.008801845176792403,0.007544438722964917 0.018609615516646784,0.016723505835905518 0.02703423875729091,0.024519425849635946 c0.002514812907654972,0.002514812907654972 0.007544438722964917,0.012574064538274834 0.010059251630619884,0.014711655509781565 c0.005029625815309942,0.005029625815309942 0.013705730346719597,0.010059251630619884 0.019615540679708724,0.014711655509781565 c0.01722646841743655,0.018483874871264013 0.026405535530377174,0.026028313594228913 0.04916459234465473,0.03684200909714525 l0.014711655509781565,0.014711655509781565 c0.008801845176792403,0.006287032269137439 0.012574064538274834,0.013454249055954102 0.014711655509781565,0.014711655509781565 l0.014711655509781565,0.014711655509781565 c0.005029625815309942,0.002514812907654972 0.011316658084447345,0.008801845176792403 0.014711655509781565,0.012574064538274834 c0.0011316658084447385,0.0012574064538274838 0.02351350068657392,0.05733773429453334 0,0.014711655509781565 c0.0037722193614824623,0.006287032269137439 0.012825545829040356,0.010059251630619884 0.01722646841743655,0.014711655509781565 c0.0012574064538274836,0.002514812907654972 0.03206386457260088,0.04023700652247953 0.014711655509781565,0.014711655509781565 c0.005029625815309942,0.005029625815309942 0.010059251630619884,0.013705730346719597 0.014711655509781565,0.019615540679708724 v0.012574064538274834 c0.0037722193614824623,0.005029625815309942 0.017100727772053823,0.014711655509781565 0.014711655509781565,0.014711655509781565 c0.008801845176792403,0.006287032269137439 0.018609615516646784,0.012574064538274834 0.022130353587363732,0.019615540679708724 c0.005029625815309942,0.007544438722964917 0.011316658084447345,0.016346283899757334 0.014711655509781565,0.024519425849635946 c0.007544438722964917,0.010059251630619884 0.016597765190522817,0.019867021970474224 0.014711655509781565,0.014711655509781565 c0.007544438722964917,0.010059251630619884 0.015969061963609074,0.022759056814277468 0.024519425849635946,0.0319381239272181 c0.008801845176792403,0.008801845176792403 0.018861096807412287,0.012951286474423084 0.02703423875729091,0.022130353587363732 c0.007544438722964917,0.008801845176792403 0.012574064538274834,0.020118503261239765 0.019615540679708724,0.02942331101956315 c0.02351350068657392,0.031435161345687114 0.02753720133882191,0.03621330587023154 0.0319381239272181,0.04174589426707259 c0.0037722193614824623,0.005029625815309942 0.011316658084447345,0.008801845176792403 0.014711655509781565,0.014711655509781565 c0.0004652403879161704,0.0007292957432199397 0.014711655509781565,0.013454249055954102 0.014711655509781565,0.014711655509781565 c0.005029625815309942,0.007544438722964917 0.006287032269137439,0.0037722193614824623 0.02703423875729091,0.03684200909714525 c0.06525939495364642,0.09619159371780284 0.1352214900446076,0.19171676201507679 0.20138621764501008,0.2873299487641187 c0.01760369035358479,0.025399610367315178 0.03671626845176253,0.04677552008238248 0.0515536646069269,0.07368401819429055 c0.002514812907654972,0.005029625815309942 -0.002514812907654972,0.010059251630619884 0,0.014711655509781565 c0.0012574064538274836,0.002514812907654972 0.010059251630619884,0.010059251630619884 0.012574064538274834,0.010059251630619884 c0.005029625815309942,0.002514812907654972 0.014711655509781565,0.014711655509781565 0.014711655509781565,0.014711655509781565 c0.005029625815309942,0.0012574064538274838 0.010059251630619884,0.012574064538274834 0.014711655509781565,0.014711655509781565 c0.02351350068657392,0.014837396155164315 0.030303495537242382,0.048410148472358125 0.04664977943699976,0.06878013302436348 c0.017729430998967524,0.02942331101956315 0.0336984929625767,0.06400198849981892 0.0515536646069269,0.09329955887399942 c0.04174589426707259,0.06815142979744972 0.05218236783384082,0.08537789821488626 0.1007182569515816,0.15472386414347192 c0.0983291846893093,0.14022596773084087 0.03709349038791083,0.05243384912460617 0.14243900308957727,0.19646975841054465 c0.06563661688979473,0.08927585822175127 0.0734325369035251,0.09707177823548191 0.1301541420356825,0.18418489735665003 c0.011316658084447345,0.01722646841743655 0.04564385427393772,0.035333121352552274 0.03684200909714525,0.05406847751458196 c0.006287032269137439,0.0012574064538274838 0.012574064538274834,0.002514812907654972 0.01722646841743655,0.014711655509781565 c0.02351350068657392,0.014334433573633296 0.031057939409538816,0.04375774459319657 0.04174589426707259,0.06626532011670855 c0.007544438722964917,0.014460174219016072 0.02514812907654966,0.03709349038791083 0.03684200909714525,0.05897236268450894 c0.04866162976312362,0.0626188414006088 0.09405400274629594,0.1263944967387386 0.1424515771541158,0.1891013565911154 l0.014711655509781565,0.014711655509781565 c0.03168664263645259,0.0375964529694418 0.0606069910744848,0.07582160916579736 0.09581437178165435,0.11052602729143596 c0.04338052265704837,0.04916459234465473 0.09015604273943054,0.09983807243390233 0.1326060846206464,0.14980740490900657 c0.017100727772053823,0.020118503261239765 0.03483015877102138,0.03860237813250381 0.0515536646069269,0.05897236268450894 c0.011316658084447345,0.01320276776518859 0.02703423875729091,0.020495725197388046 0.02703423875729091,0.03684200909714525 c0,0.010059251630619884 -0.016597765190522817,0.012574064538274834 -0.02703423875729091,0.014711655509781565 c0.008801845176792403,-0.00016346283899757315 0.018232393580498545,-0.0037722193614824623 0.02703423875729091,0 c0.03332127102642834,0.011316658084447345 0.03332127102642834,0.018483874871264013 0.0515536646069269,0.03684200909714525 c0.008801845176792403,0.008801845176792403 0.018106652935115784,0.018483874871264013 0.02703423875729091,0.02703423875729091 c0.04250033813936897,0.04778144524544446 0.03659052780637984,0.03860237813250381 0.07858790336421777,0.09329955887399942 c0.012574064538274834,0.016597765190522817 0.026154054239611632,0.035333121352552274 0.03923108135941757,0.0515536646069269 c0.02338776004119119,0.029046089083414908 0.05645754977685401,0.06324754462752252 0.08110271627187271,0.0909104866117271 c0.014837396155164315,0.016472024545140015 0.03206386457260088,0.034955899416404104 0.04664977943699976,0.0515536646069269 c0.011316658084447345,0.016094802608991803 0.019867021970474224,0.035961824579466034 0.0319381239272181,0.0515536646069269 c0.020118503261239765,0.02565109165808063 0.0733067962581423,0.07795920013730402 0.09329955887399942,0.1007182569515816 c0.07242661174046304,0.08248586337108312 0.034955899416404104,0.03835089684173834 0.1007182569515816,0.12033379763129028 c0.012574064538274834,0.01546609938207804 0.026908498111908152,0.031309420700304375 0.03923108135941757,0.04664977943699976 c0.012574064538274834,0.023890722622722217 -0.005029625815309942,-0.0012574064538274838 0.01722646841743655,0.022130353587363732 c0.0037722193614824623,0.002514812907654972 0.012574064538274834,0.011316658084447345 0.014711655509781565,0.014711655509781565 c0.005029625815309942,0.002514812907654972 0.010059251630619884,0.011316658084447345 0.014711655509781565,0.014711655509781565 c0.015214618091312561,0.013831470992102338 0.03332127102642834,0.026028313594228913 0.04664977943699976,0.04174589426707259 c0.006287032269137439,0.008801845176792403 0.013705730346719597,0.01798091228973301 0.019615540679708724,0.02703423875729091 c0.007544438722964917,0.011316658084447345 0.011316658084447345,0.011316658084447345 0.014711655509781565,0.01722646841743655 c0.007544438722964917,0.0037722193614824623 0.012574064538274834,0.0012574064538274838 0.019615540679708724,0.014711655509781565 l0.014711655509781565,0.010059251630619884 c0.02062146584277079,0.02917182972879765 0.029046089083414908,0.03860237813250381 0.04426070717472747,0.06878013302436348 c0.0037722193614824623,0.007544438722964917 0.012574064538274834,0.010059251630619884 0.014711655509781565,0.01722646841743655 c0.001018499227600263,0.002514812907654972 0.014711655509781565,0.012574064538274834 0.014711655509781565,0.014711655509781565 c0.00006287032269137448,0.0037722193614824623 0.0006915735496051156,0.011316658084447345 0,0.014711655509781565 c0.002514812907654972,0.002514812907654972 0.013454249055954102,0.012574064538274834 0.014711655509781565,0.014711655509781565 c0.0037722193614824623,0.006287032269137439 0.013454249055954102,0.012825545829040356 0.014711655509781565,0.019615540679708724 c-0.0008047401304495893,-0.0009430548403706132 0.0012448323892892115,-0.001169388002059562 0.014711655509781565,0.012574064538274834 c0.010059251630619884,0.011316658084447345 0.022130353587363732,0.02753720133882191 0.0319381239272181,0.03923108135941757 l0.005029625815309942,0.005029625815309942 c0.0012574064538274836,0.002514812907654972 0.013454249055954102,0.008801845176792403 0.014711655509781565,0.010059251630619884 c0.005029625815309942,0.006287032269137439 0.013705730346719597,0.008801845176792403 0.019615540679708724,0.014711655509781565 c0.012574064538274834,0.012574064538274834 0.027159979402673673,0.022759056814277468 0.03684200909714525,0.03684200909714525 c0.002514812907654972,0.0037722193614824623 0.012574064538274834,0.011316658084447345 0.014711655509781565,0.014711655509781565 l0.014711655509781565,0.014711655509781565 c0.002514812907654972,0.005029625815309942 0.011316658084447345,0.010059251630619884 0.014711655509781565,0.014711655509781565 c0.005029625815309942,0.006287032269137439 0.012574064538274834,0.011316658084447345 0.019615540679708724,0.01722646841743655 l0.002514812907654972,0.012574064538274834 c0.018232393580498545,0.021878872296598236 0.016346283899757334,0.019615540679708724 0.014711655509781565,0.01722646841743655 c-0.0012448323892892115,-0.002514812907654972 0.010059251630619884,0.008801845176792403 0.014711655509781565,0.014711655509781565 c0.002514812907654972,0.0012574064538274838 0.0037722193614824623,0.013454249055954102 0.005029625815309942,0.014711655509781565 c0.002514812907654972,0.0037722193614824623 -0.002514812907654972,-0.0012574064538274838 0.002514812907654972,0.005029625815309942 c0.005029625815309942,0.005029625815309942 0.013454249055954102,0.008801845176792403 0.014711655509781565,0.014711655509781565 c0.0011316658084447385,0.0012574064538274836 -0.0012574064538274838,0.013454249055954102 0.002514812907654972,0.014711655509781565 c0.002514812907654972,0.0037722193614824623 0.012574064538274834,0.012574064538274834 0.014711655509781565,0.014711655509781565 l0.014711655509781565,0.014711655509781565 c0.008801845176792403,0.010059251630619884 0.01722646841743655,0.017477949708202045 0.024519425849635946,0.02703423875729091 c0.0037722193614824623,0.005029625815309942 0.011316658084447345,0.010059251630619884 0.014711655509781565,0.014711655509781565 c0.012574064538274834,0.015214618091312561 0.02489664778578411,0.03156090199106988 0.03684200909714525,0.04664977943699976 l0.002514812907654972,0.012574064538274834 l0.014711655509781565,0.014711655509781565 c0.001144239872983012,0.0012574064538274838 -0.001144239872983012,0.011316658084447345 0.005029625815309942,0.012574064538274834 l0.014711655509781565,0.014711655509781565 c0.005029625815309942,0.0037722193614824623 0.010059251630619884,0.010059251630619884 0.014711655509781565,0.014711655509781565 l0.014711655509781565,0.012574064538274834 c0.033447011671811175,0.016597765190522817 0.058720881393743554,0.041494412976306974 0.08349178853414496,0.06878013302436348 c0.0037722193614824623,0.005029625815309942 0.010059251630619884,0.011316658084447345 0.014711655509781565,0.014711655509781565 c0.005029625815309942,0.005029625815309942 0.008801845176792403,0.010059251630619884 0.014711655509781565,0.014711655509781565 c0.03319553038104561,0.031183680054921618 0.005029625815309942,0.006287032269137439 0.03684200909714525,0.03684200909714525 c0.006287032269137439,0.006287032269137439 0.025525351012697945,0.023639241331956717 0.0319381239272181,0.02942331101956315 c0.09958659114313673,0.07607309045656283 0.11794472536901818,0.08487493563335519 0.22349142310329698,0.15717580672843542 c0.1326563808787995,0.0909104866117271 0.06664254205285668,0.04639829814623417 0.18173295477168638,0.12284861053894539 c0.06500791366288082,0.04501515104702405 0.022633316168894718,0.014208692928250577 0.0515536646069269,0.03684200909714525 c0.018232393580498545,0.014334433573633296 0.041494412976306974,0.02854312650188384 0.05645754977685401,0.04664977943699976 c0.06287032269137427,0.05545162461379218 -0.014082952282867805,-0.012574064538274834 0.05897236268450894,0.04916459234465473 c0.011316658084447345,0.010059251630619884 0.02489664778578411,0.024770907140401446 0.03684200909714525,0.03445293683487315 c0.037470712324059005,0.031309420700304375 0.07632457174732821,0.0606069910744848 0.11052602729143596,0.09581437178165435 c0.04099145039477609,0.03432719618949033 0.08437197305182442,0.06639106076209127 0.12523768280121747,0.1007182569515816 c0.030806458118773347,0.026028313594228913 0.05960106591142279,0.05318829299690266 0.0909104866117271,0.07858790336421777 c0.010059251630619884,0.007544438722964917 0.013831470992102338,0.014837396155164315 0.019615540679708724,0.022130353587363732 h0.002514812907654972 h0.014711655509781565 c0.0010813695502916358,0.0012574064538274838 0.011316658084447345,0.012574064538274834 0.012574064538274834,0.014711655509781565 c-0.0009682029694471656,-0.002514812907654972 0.013454249055954102,0.013454249055954102 0.014711655509781565,0.014711655509781565 l0.010059251630619884,0.002514812907654972 c0.0037722193614824623,-0.0037722193614824623 0.014711655509781565,-0.010059251630619884 0.014711655509781565,-0.014711655509781565 c0.005029625815309942,0.006287032269137439 0.011316658084447345,0.015214618091312561 0.014711655509781565,0.024519425849635946 v0.005029625815309942 c-0.006287032269137439,-0.002514812907654972 0.0037722193614824623,0.0012574064538274838 0.014711655509781565,0.014711655509781565 c0.002514812907654972,0.0037722193614824623 0.012574064538274834,0.011316658084447345 0.014711655509781565,0.014711655509781565 c0.008801845176792403,0.006287032269137439 0.01697498712667107,0.014963136800547054 0.022130353587363732,0.024519425849635946 c0.007544438722964917,0.011316658084447345 0.016849246481288313,0.022130353587363732 0.019615540679708724,0.02703423875729091 c0.011316658084447345,0.008801845176792403 0.01307702711980583,0.022004612941981017 0.022130353587363732,0.0319381239272181 l0.014711655509781565,0.010059251630619884 c0.002514812907654972,0.002514812907654972 0.013454249055954102,0.012574064538274834 0.014711655509781565,0.014711655509781565 c0.002514812907654972,0.005029625815309942 0.012574064538274834,0.010059251630619884 0.014711655509781565,0.014711655509781565 c0.006287032269137439,0.010059251630619884 0.010059251630619884,0.010059251630619884 0.01722646841743655,0.019615540679708724 c0.012574064538274834,0.01534035873669533 0.010059251630619884,0.014460174219016072 0.019615540679708724,0.0319381239272181 c0.0007292957432199397,0.0008424623240644148 -0.0007418698077582171,0.005029625815309942 0.005029625815309942,0.007544438722964917 l0.014711655509781565,0.014711655509781565 l0.014711655509781565,0.014711655509781565 l0.005029625815309942,0.005029625815309942 c0.0037722193614824623,0.002514812907654972 0.011316658084447345,0.011316658084447345 0.014711655509781565,0.014711655509781565 c-0.02665701682114267,-0.007544438722964917 -0.008801845176792403,0.0012574064538274838 0.010059251630619884,0.014711655509781565 c0.002514812907654972,0.001207110195674388 0.013454249055954102,0.012574064538274834 0.014711655509781565,0.014711655509781565 c0.002514812907654972,0.0008424623240644148 0.012574064538274834,-0.0012574064538274838 0.012574064538274834,0.002514812907654972 l0.014711655509781565,0.007544438722964917 l0.014711655509781565,0.014711655509781565 l0.012574064538274834,0.014711655509781565 c0.007544438722964917,0.007544438722964917 0.018483874871264013,0.01332850841057133 0.024519425849635946,0.022130353587363732 c0.0012448323892892115,0.002514812907654972 0.010059251630619884,0.013454249055954102 0.012574064538274834,0.014711655509781565 c0.0037722193614824623,0.0037722193614824623 0.011316658084447345,0.012574064538274834 0.014711655509781565,0.014711655509781565 c0.008801845176792403,0.008801845176792403 0.016597765190522817,0.020118503261239765 0.022130353587363732,0.0319381239272181 c0.011316658084447345,0.018358134225881246 0.00027662941984204695,-0.0037722193614824623 0.014711655509781565,0.01722646841743655 c0.0012574064538274836,0.002514812907654972 0.014837396155164315,0.014711655509781565 0.012574064538274834,0.014711655509781565 h0.002514812907654972 c0.007544438722964917,0.006287032269137439 0.01697498712667107,0.016472024545140015 0.01722646841743655,0.02703423875729091 l0.007544438722964917,0.014711655509781565 c0.000616129162375467,0.0012574064538274838 0.012574064538274834,0.012574064538274834 0.012574064538274834,0.014711655509781565 v0.012574064538274834 c0.0012448323892892115,0.002514812907654972 0.013454249055954102,0.013454249055954102 0.014711655509781565,0.014711655509781565 c0.002514812907654972,0.002514812907654972 0.0005406847751458193,0.013454249055954102 0.005029625815309942,0.014711655509781565 l0.014711655509781565,0.012574064538274834 c-0.002514812907654972,-0.00040237006522479533 0.005029625815309942,0.002514812907654972 0.014711655509781565,0.014711655509781565 c0.0012574064538274836,0.0012574064538274838 0.00044009225883962053,0.012574064538274834 0,0.014711655509781565 v0.002514812907654972 l0.014711655509781565,0.007544438722964917 c0.0012448323892892115,0.0012574064538274838 0.013454249055954102,0.010059251630619884 0.014711655509781565,0.012574064538274834 c0.002514812907654972,0.002514812907654972 0.013454249055954102,0.012574064538274834 0.014711655509781565,0.014711655509781565 c0.005029625815309942,0.010059251630619884 0.012574064538274834,0.03571034328870054 0.014711655509781565,0.04426070717472747 c0.002514812907654972,0.011316658084447345 0.010059251630619884,0.02351350068657392 0.012574064538274834,0.03432719618949033 c0.0012448323892892115,0.007544438722964917 -0.011316658084447345,0.008801845176792403 -0.012574064538274834,0.014711655509781565 c0.002514812907654972,0.002514812907654972 0.011316658084447345,0.012574064538274834 0.012574064538274834,0.014711655509781565 l0.014711655509781565,0.005029625815309942 c0.002514812907654972,0.0007418698077582171 0.012574064538274834,0.010059251630619884 0.014711655509781565,0.012574064538274834 c0.0037722193614824623,0.006287032269137439 0.010059251630619884,0.018106652935115784 0.014711655509781565,0.024519425849635946 c0.0012574064538274836,0.002514812907654972 0.0012574064538274836,-0.011316658084447345 0,-0.014711655509781565 c0.0012574064538274836,-0.0037722193614824623 0.014711655509781565,0.018609615516646784 0.014711655509781565,0.019615540679708724 c0.000616129162375467,0.0037722193614824623 0.014711655509781565,0.008801845176792403 0.014711655509781565,0.012574064538274834 c0.006287032269137439,0.01357998970133683 0.012825545829040356,0.020495725197388046 0.014711655509781565,0.03684200909714525 v0.014711655509781565 c-0.002514812907654972,-0.00027662941984204695 0.0012574064538274838,0.005029625815309942 0.014711655509781565,0.014711655509781565 c0.019112578098177794,0.02401646326810494 0.026154054239611632,0.05532588396840945 0.04664977943699976,0.07858790336421777 c0.011316658084447345,0.013454249055954102 0.014711655509781565,0.016849246481288313 0.014711655509781565,0.02703423875729091 c0.0008424623240644148,0.0010813695502916358 0.0012574064538274838,0.0012574064538274838 0.014711655509781565,0.014711655509781565 c0.006287032269137439,0.007544438722964917 0.011316658084447345,0.02062146584277079 0.014711655509781565,0.02942331101956315 c0.0192383187435605,0.021878872296598236 0.03784793426020729,0.04438644782011019 0.05406847751458196,0.06878013302436348 c0.007544438722964917,0.012574064538274834 0.0012574064538274836,0.014334433573633296 0,0.022130353587363732 c0.008801845176792403,0.007544438722964917 0.010059251630619884,0.012574064538274834 0.014711655509781565,0.019615540679708724 l0.014711655509781565,0.010059251630619884 c0.0007292957432199397,0.0012574064538274838 0.005029625815309942,0.012574064538274834 0.007544438722964917,0.014711655509781565 c-0.0012448323892892115,0.0004903885169927201 -0.013454249055954102,-0.006287032269137439 -0.014711655509781565,-0.007544438722964917 c0.0006789994850668417,0.0012574064538274838 -0.0004652403879161704,0.013454249055954102 0,0.014711655509781565 c0.0012448323892892115,-0.00030177754891859643 0.013454249055954102,-0.0009682029694471656 0.014711655509781565,0 c0.002514812907654972,0.002514812907654972 0.007544438722964917,0.013454249055954102 0.010059251630619884,0.014711655509781565 c0.0012574064538274836,0.0007292957432199397 0.013454249055954102,0.013454249055954102 0.014711655509781565,0.014711655509781565 c0.0012574064538274836,0.002514812907654972 0.005029625815309942,0.011316658084447345 0.005029625815309942,0.014711655509781565 c0.0012448323892892115,0.002514812907654972 0.012574064538274834,0.010059251630619884 0.012574064538274834,0.014711655509781565 c-0.000012574064538274905,0.002514812907654972 -0.00013831470992102326,0.010059251630619884 0,0.012574064538274834 v0.014711655509781565 l-0.002514812907654972,0.002514812907654972 c-0.0005784069687606434,-0.002514812907654972 -0.006287032269137439,-0.01785517164435026 0.002514812907654972,0.014711655509781565 c-0.0003520738070716954,0.012574064538274834 -0.002514812907654972,0.029046089083414908 -0.012574064538274834,0.03684200909714525 c-0.008801845176792403,0.008801845176792403 -0.01697498712667107,0.015843321318226296 -0.024519425849635946,0.024519425849635946 c-0.019615540679708724,0.014711655509781565 -0.014711655509781565,0.011316658084447345 -0.014711655509781565,0.007544438722964917 l-0.014711655509781565,0.005029625815309942 c-0.002514812907654972,0.002514812907654972 -0.013454249055954102,0.012574064538274834 -0.014711655509781565,0.014711655509781565 c-0.006287032269137439,0.007544438722964917 -0.011316658084447345,0.011316658084447345 -0.014711655509781565,0.012574064538274834 c-0.002514812907654972,0.0007292957432199397 -0.007544438722964917,0.005029625815309942 -0.012574064538274834,0.010059251630619884 v0.007544438722964917 l-0.014711655509781565,0.002514812907654972 h-0.005029625815309942 v0.005029625815309942 c-0.0012574064538274836,0.0006287032269137421 -0.012574064538274834,0.0006287032269137421 -0.012574064538274834,0 c-0.011316658084447345,0.002514812907654972 -0.021627391005832722,0.013454249055954102 -0.014711655509781565,0.014711655509781565 h-0.014711655509781565 c-0.0012574064538274836,0.0007418698077582171 -0.011316658084447345,0.0037722193614824623 -0.012574064538274834,0.005029625815309942 l-0.007544438722964917,0.012574064538274834 c-0.002514812907654972,0.0010813695502916358 -0.024645166495018685,0.014711655509781565 -0.02703423875729091,0.014711655509781565 c-0.008801845176792403,0.002514812907654972 -0.0319381239272181,0.014963136800547054 -0.03923108135941757,0.014711655509781565 H467.97189610681517 c-0.0012574064538274836,0.00040237006522479533 -0.006287032269137439,-0.0005029625815309943 -0.007544438722964917,0 l-0.002514812907654972,0.007544438722964917 c-0.005029625815309942,0.002514812907654972 -0.010059251630619884,0.012574064538274834 -0.014711655509781565,0.014711655509781565 c-0.0037722193614824623,0.0012574064538274838 -0.014963136800547054,-0.0008047401304495893 -0.019615540679708724,0 v-0.005029625815309942 c-0.007544438722964917,0.0008173141949878651 -0.011316658084447345,0.007544438722964917 -0.019615540679708724,0.005029625815309942 c-0.01320276776518859,-0.0037722193614824623 -0.026154054239611632,-0.014711655509781565 -0.03923108135941757,-0.014711655509781565 c-0.0037722193614824623,-0.0011568139375212878 -0.008801845176792403,-0.0037722193614824623 -0.012574064538274834,-0.007544438722964917 c-0.002514812907654972,-0.000616129162375467 -0.006287032269137439,-0.013454249055954102 -0.007544438722964917,-0.014711655509781565 c-0.002514812907654972,-0.0007292957432199397 -0.005029625815309942,-0.012574064538274834 -0.007544438722964917,-0.012574064538274834 c-0.0037722193614824623,-0.00028920348438032234 -0.010059251630619884,0.0003520738070716954 -0.014711655509781565,0 c-0.0037722193614824623,-0.0003520738070716954 -0.010059251630619884,0.0012574064538274838 -0.014711655509781565,-0.002514812907654972 c-0.006287032269137439,-0.0012574064538274836 -0.017100727772053823,-0.013454249055954102 -0.022130353587363732,-0.014711655509781565 c-0.012574064538274834,-0.005029625815309942 -0.023136278750425756,-0.014711655509781565 -0.03684200909714525,-0.014711655509781565 c-0.006287032269137439,-0.0012574064538274838 -0.013705730346719597,-0.011316658084447345 -0.019615540679708724,-0.012574064538274834 c-0.0037722193614824623,-0.001144239872983012 -0.006287032269137439,-0.013454249055954102 -0.010059251630619884,-0.014711655509781565 l-0.014711655509781565,-0.014711655509781565 c-0.018735356162029475,-0.010059251630619884 -0.03684200909714525,-0.019112578098177794 -0.05645754977685401,-0.02703423875729091 c-0.04878737040850642,-0.019615540679708724 -0.09782622210777825,-0.043003300720900035 -0.14243900308957727,-0.07116920528663553 c-0.011316658084447345,-0.008801845176792403 -0.021501650360449945,-0.012574064538274834 -0.0319381239272181,-0.022130353587363732 c-0.011316658084447345,-0.010059251630619884 -0.0012574064538274838,-0.006287032269137439 -0.014711655509781565,-0.014711655509781565 c-0.0012448323892892115,-0.0012574064538274838 -0.0037722193614824623,-0.005029625815309942 -0.005029625815309942,-0.007544438722964917 c-0.015843321318226296,-0.010059251630619884 -0.031309420700304375,-0.021375909715067226 -0.04664977943699976,-0.0319381239272181 c-0.002514812907654972,-0.002514812907654972 -0.011316658084447345,-0.012574064538274834 -0.014711655509781565,-0.014711655509781565 v-0.002514812907654972 c-0.005029625815309942,-0.0037722193614824623 -0.010059251630619884,-0.011316658084447345 -0.014711655509781565,-0.014711655509781565 c-0.010059251630619884,-0.006287032269137439 -0.019364059388943245,-0.010059251630619884 -0.02942331101956315,-0.01722646841743655 c-0.04551811362855496,-0.0309321987641561 -0.09468270597320948,-0.06123569430139866 -0.14243900308957727,-0.08839567370407213 c-0.014963136800547054,-0.010059251630619884 -0.029674792310328643,-0.01697498712667107 -0.04426070717472747,-0.02703423875729091 l-0.010059251630619884,-0.014711655509781565 l-0.014711655509781565,-0.014711655509781565 c-0.002514812907654972,-0.002514812907654972 -0.011316658084447345,-0.012574064538274834 -0.014711655509781565,-0.014711655509781565 c-0.01395721163748507,-0.010059251630619884 -0.027285720048056405,-0.014837396155164315 -0.03923108135941757,-0.02703423875729091 c-0.002514812907654972,-0.0012574064538274838 -0.012574064538274834,-0.012574064538274834 -0.014711655509781565,-0.014711655509781565 c-0.0012574064538274836,-0.0011065176793681874 -0.005029625815309942,-0.013454249055954102 -0.007544438722964917,-0.014711655509781565 c-0.007544438722964917,-0.005029625815309942 -0.016723505835905518,-0.010059251630619884 -0.024519425849635946,-0.014711655509781565 c-0.0012448323892892115,-0.0006287032269137421 -0.013454249055954102,-0.011316658084447345 -0.014711655509781565,-0.012574064538274834 c-0.0012448323892892115,-0.00016346283899757315 -0.013454249055954102,-0.002514812907654972 -0.014711655509781565,-0.002514812907654972 l-0.014711655509781565,-0.002514812907654972 c-0.01320276776518859,-0.005029625815309942 -0.024519425849635946,-0.014963136800547054 -0.03684200909714525,-0.022130353587363732 c-0.0037722193614824623,-0.0037722193614824623 -0.010059251630619884,-0.011316658084447345 -0.014711655509781565,-0.014711655509781565 c-0.002514812907654972,-0.002514812907654972 -0.011316658084447345,-0.007544438722964917 -0.014711655509781565,-0.010059251630619884 c-0.0012574064538274836,-0.00006287032269137448 -0.012574064538274834,0.007544438722964917 -0.014711655509781565,0.007544438722964917 c0.0012448323892892115,0.0003394997425334216 0.0012574064538274838,-0.010059251630619884 -0.002514812907654972,-0.012574064538274834 c-0.0037722193614824623,-0.0012574064538274838 -0.011316658084447345,-0.013454249055954102 -0.014711655509781565,-0.014711655509781565 l-0.002514812907654972,-0.007544438722964917 c-0.002514812907654972,-0.0008550363886026879 -0.012574064538274834,0.0008424623240644148 -0.014711655509781565,0 l-0.002514812907654972,-0.007544438722964917 c-0.007544438722964917,-0.002514812907654972 -0.014711655509781565,-0.011316658084447345 -0.022130353587363732,-0.014711655509781565 c-0.012574064538274834,-0.006287032269137439 -0.0037722193614824623,-0.010059251630619884 0,-0.014711655509781565 l-0.014711655509781565,-0.005029625815309942 c-0.0037722193614824623,-0.002514812907654972 -0.011316658084447345,-0.010059251630619884 -0.014711655509781565,-0.012574064538274834 h-0.002514812907654972 c-0.002514812907654972,-0.0012574064538274838 -0.012574064538274834,-0.013454249055954102 -0.014711655509781565,-0.014711655509781565 c-0.0037722193614824623,-0.002514812907654972 -0.01571758067284355,-0.011316658084447345 -0.014711655509781565,-0.014711655509781565 c-0.002514812907654972,-0.0037722193614824623 -0.014711655509781565,-0.011316658084447345 -0.014711655509781565,-0.014711655509781565 c-0.007544438722964917,-0.0012574064538274838 -0.019489800034326023,-0.0010939436148299096 -0.024519425849635946,-0.014711655509781565 h-0.002514812907654972 c-0.007544438722964917,-0.0192383187435605 -0.011316658084447345,-0.04250033813936897 -0.019615540679708724,-0.06136143494678123 c-0.0009556289049088885,-0.002514812907654972 0.0012574064538274838,-0.012574064538274834 -0.002514812907654972,-0.014711655509781565 h-0.012574064538274834 l-0.002514812907654972,-0.002514812907654972 l-0.010059251630619884,-0.002514812907654972 l-0.012574064538274834,-0.019615540679708724 v-0.002514812907654972 c-0.007544438722964917,-0.010059251630619884 -0.021627391005832722,-0.016849246481288313 -0.02942331101956315,-0.02703423875729091 c-0.006287032269137439,-0.007544438722964917 0.0037722193614824623,0.0037722193614824623 -0.014711655509781565,-0.014711655509781565 l-0.014711655509781565,-0.005029625815309942 c-0.002514812907654972,-0.0037722193614824623 -0.0037722193614824623,-0.011316658084447345 -0.005029625815309942,-0.014711655509781565 c-0.014585914864398792,-0.021878872296598236 -0.015214618091312561,-0.018358134225881246 -0.02942331101956315,-0.04426070717472747 c-0.0037722193614824623,-0.006287032269137439 0.006287032269137439,-0.010059251630619884 0.005029625815309942,-0.014711655509781565 c-2.7156458664602834,-2.76865812255365 -5.3618954707338276,-5.650633714726234 -7.979124134053035,-8.583270212923523 c-0.20733375017161343,-0.09103622725710972 -0.32387018031234455,-0.21119398798486413 -0.3585620243734459,-0.4076763204599472 c-5.762002204341733,-6.506047325265066 -11.374511355387916,-13.239307996736759 -17.223023123752977,-19.66908104651265 c-0.006287032269137439,-0.0037722193614824623 -0.006287032269137439,-0.008801845176792403 -0.014711655509781565,-0.014711655509781565 c-0.10662806728457057,-0.07041476141433904 -0.14623637058013625,-0.11693880020595625 -0.23331176750768975,-0.2038381602299734 c-0.059475325266039915,-0.056080327840706025 -0.24348418571915373,-0.22756542001369795 -0.277509604359726,-0.26768925995533277 c-0.10197566340540894,-0.12045953827667323 -0.057714956230681555,-0.11555565310674575 -0.13261865868518463,-0.2283953082732239 c-0.07167216786816642,-0.1078854737383981 -0.1112804711637322,-0.13431615739785177 -0.20875461946443852,-0.22594336568826026 c-0.1500463121352335,-0.13856619121178884 -0.30708380415374825,-0.2716626643494277 -0.4346854110881607,-0.4322334685031979 c-0.030177754891859625,-0.03797367490559005 -0.04023700652247953,-0.06463069172673266 -0.05406847751458196,-0.0909104866117271 c-5.583701969188996,-6.050954207431287 -11.398879892463093,-11.80143856865596 -17.800160111995254,-16.76623250720653 c-6.704038545484742,-5.401880995965543 -14.852950272998104,-8.781085396239664 -21.67060806565069,-13.45572525113082 c-19.57151887976018,-13.418765045827017 -38.95443936551079,-26.93256990106013 -60.355509783719,-37.36363662007676 c-51.35274362966956,-25.282139684179153 -108.88404307370483,-38.419645539601134 -165.97765190522728,-38.62104181649778 zm-123.31915718209605,11.621185581280429 c-12.789043319685677,4.824922559439712 -26.196718040589932,7.7612470307660795 -38.979600068651855,12.82947648161495 c-5.186801622038352,2.056488255234843 -11.731602214210382,3.967591404058791 -15.088877445929754,8.546433233452193 c14.354552076894503,-0.3058012495708445 28.105599352209968,-7.995729443682284 41.49441297630682,-12.578975967883444 c4.3292629945925505,-1.4818535058356859 12.708669899157025,-3.378014893768801 12.574064538274794,-8.796933747183704 zM436.5981339182682,62.83134573408469 c0.005029625815309942,0.002514812907654972 0.006287032269137439,0.008801845176792403 0.010059251630619884,0.012574064538274834 c-0.0008676104531409644,-0.0037722193614824623 0.0007292957432199397,-0.006287032269137439 0,-0.010059251630619884 c-0.002514812907654972,-0.002514812907654972 -0.006287032269137439,0.0012574064538274838 -0.010059251630619884,-0.002514812907654972 zm11.508211383623392,15.15026402900561 c0.008801845176792403,0.002514812907654972 0.020495725197388046,0.007544438722964917 0.02942331101956315,0.012574064538274834 c0.023262019395808464,0.024267944558870474 0.013454249055954102,0.012574064538274834 0.014711655509781565,0.014711655509781565 c-0.014711655509781565,-0.008801845176792403 -0.02703423875729091,-0.016723505835905518 -0.04426070717472747,-0.02703423875729091 zm6.208444365773179,7.2816659222440085 c0.005029625815309942,0.010059251630619884 0.010059251630619884,0.021501650360449945 0.014711655509781565,0.0319381239272181 c0.0037722193614824623,-0.0010813695502916358 0.006287032269137439,-0.0037722193614824623 0.010059251630619884,-0.005029625815309942 c-0.008801845176792403,-0.008801845176792403 -0.016472024545140015,-0.01798091228973301 -0.024519425849635946,-0.02703423875729091 zm1.8198066384308962,2.01627639684144 c0.01332850841057133,0.015088877445929823 0.02112442842430177,0.03420145554410767 0.03432719618949033,0.04916459234465473 c-0.002514812907654972,-0.006287032269137439 -0.007544438722964917,-0.011316658084447345 -0.010059251630619884,-0.01722646841743655 c-0.010059251630619884,-0.008801845176792403 -0.01546609938207804,-0.022004612941981017 -0.024519425849635946,-0.0319381239272181 zm2.043285487469654,2.6400631645207153 c0.000012574064538274905,0.006287032269137439 -0.0003520738070716954,0.011316658084447345 0,0.01722646841743655 c0.00025148129076549763,0.006287032269137439 -0.0012574064538274838,-0.007544438722964917 0.002514812907654972,-0.01722646841743655 zm0.03432719618949033,0.03923108135941757 c0.002514812907654972,0.005029625815309942 0.005029625815309942,0.010059251630619884 0.007544438722964917,0.014711655509781565 l0.002514812907654972,-0.002514812907654972 c-0.0037722193614824623,-0.005029625815309942 -0.006287032269137439,-0.008801845176792403 -0.010059251630619884,-0.012574064538274834 zm1.488266278750205,1.2942358888600862 c0.013705730346719597,0.018609615516646784 0.02401646326810494,0.04162015362168979 0.04174589426707259,0.05645754977685401 c0.002514812907654972,0.002514812907654972 -0.0037722193614824623,-0.006287032269137439 -0.005029625815309942,-0.010059251630619884 c-0.01357998970133683,-0.014460174219016072 -0.020872947133536247,-0.03420145554410767 -0.03684200909714525,-0.04664977943699976 zm3.1459680771536616,4.140601730260275 c0.0037722193614824623,0.0037722193614824623 0.006287032269137439,0.008801845176792403 0.010059251630619884,0.012574064538274834 c-0.0008801845176792392,-0.002514812907654972 0.0012574064538274838,-0.006287032269137439 -0.002514812907654972,-0.007544438722964917 c-0.0012574064538274838,-0.0012574064538274838 -0.005029625815309942,-0.0037722193614824623 -0.007544438722964917,-0.005029625815309942 zm3.497161699707678,4.17744373935742 l0.002514812907654972,0.005029625815309942 c0.0012574064538274836,-0.0007544438722964904 0.0037722193614824623,0.0005281107106075438 0.005029625815309942,0 c-0.005029625815309942,-0.0037722193614824623 -0.002514812907654972,0.0012574064538274838 -0.007544438722964917,-0.005029625815309942 zm0.19155329917607886,0.6458919731375635 c0.005029625815309942,0.005029625815309942 -0.0012574064538274838,0.007544438722964917 0.002514812907654972,0.012574064538274834 c0.0012448323892892115,0.0011065176793681874 0.0037722193614824623,0.002514812907654972 0.005029625815309942,0.005029625815309942 c-0.021501650360449945,-0.032315345863366325 0.002514812907654972,0.0012574064538274838 -0.007544438722964917,-0.01722646841743655 zm1.2893320036901597,1.0535682935975077 c0.00037722193614824645,0.0012574064538274836 0.001232258324750935,0.0037722193614824623 0,0.005029625815309942 h0.002514812907654972 l0.002514812907654972,-0.002514812907654972 c-0.0012574064538274836,-0.0006412772914520151 -0.0037722193614824623,0.0012574064538274838 -0.005029625815309942,-0.002514812907654972 zM-182.0875935461508,525.5298990779044 c3.6212048463777586,17.498068211463206 13.510958087021653,33.8657280209355 22.633316168894627,49.03885169927169 c3.75348400532041,6.243023043253436 7.29710938830992,14.028883805353187 13.831470992102272,17.603690353584707 c-5.303109204204486,-15.574236337107157 -14.830511854829552,-29.704970065220373 -22.810138951464115,-44.009225883961776 c-4.145291856333052,-7.431272142120403 -7.594829286602013,-16.638002197045203 -13.654648209532782,-22.633316168894627 zm35.20738070716941,67.89994850668388 c1.387419766340334,1.832041203226639 1.9406811208373318,2.3853000429107283 3.772219361482438,3.772219361482438 c-1.387422281153241,-1.832041203226639 -1.9406836356502408,-2.3853000429107283 -3.772219361482438,-3.772219361482438 zm86.7610390270638,77.95920013730371 c3.0542905726051006,7.225057483692696 7.959395426792481,13.63783039821284 16.346283899757232,13.831470992102272 v2.514812907654959 c3.9067618520419796,0.22633316168894702 7.456457993390569,1.8345560161342922 11.316658084447313,2.514812907654959 c-7.0351388129065935,-7.677723807070588 -18.26508614829796,-14.414907586678222 -27.662941984204544,-18.861096807412185 zm26.40553553037707,10.059251630619835 c4.139432342258216,7.037703922072403 13.706987753173353,12.64573670614296 21.375909715067152,15.088877445929754 c-5.805420449192397,-6.686887521454534 -13.270629991501602,-11.595802317197014 -21.375909715067152,-15.088877445929754 zm38.979600068651855,31.435161345686982 c7.227572296600352,7.304274090283828 17.99476890885413,10.0667960693428 27.662941984204544,12.574064538274794 c-6.685630115000707,-6.699461585992811 -18.641025529863303,-10.11206270168059 -27.662941984204544,-12.574064538274794 z" class="selected" opacity="0.82"/></g></svg>