<?xml version="1.0" encoding="UTF-8" standalone="no"?>
<svg
   xmlns:dc="http://purl.org/dc/elements/1.1/"
   xmlns:cc="http://creativecommons.org/ns#"
   xmlns:rdf="http://www.w3.org/1999/02/22-rdf-syntax-ns#"
   xmlns:svg="http://www.w3.org/2000/svg"
   xmlns="http://www.w3.org/2000/svg"
   xmlns:sodipodi="http://sodipodi.sourceforge.net/DTD/sodipodi-0.dtd"
   xmlns:inkscape="http://www.inkscape.org/namespaces/inkscape"
   width="649"
   height="650"
   version="1.1"
   id="svg64"
   sodipodi:docname="pink.svg"
   inkscape:version="0.92.3 (2405546, 2018-03-11)">
  <metadata
     id="metadata70">
    <rdf:RDF>
      <cc:Work
         rdf:about="">
        <dc:format>image/svg+xml</dc:format>
        <dc:type
           rdf:resource="http://purl.org/dc/dcmitype/StillImage" />
        <dc:title></dc:title>
      </cc:Work>
    </rdf:RDF>
  </metadata>
  <defs
     id="defs68" />
  <sodipodi:namedview
     pagecolor="#000000"
     bordercolor="#666666"
     borderopacity="1"
     objecttolerance="10"
     gridtolerance="10"
     guidetolerance="10"
     inkscape:pageopacity="0"
     inkscape:pageshadow="2"
     inkscape:window-width="1920"
     inkscape:window-height="1025"
     id="namedview66"
     showgrid="false"
     inkscape:zoom="1.4142136"
     inkscape:cx="584.18865"
     inkscape:cy="421.12215"
     inkscape:window-x="0"
     inkscape:window-y="27"
     inkscape:window-maximized="1"
     inkscape:current-layer="svg64"
     inkscape:pagecheckerboard="true" />
  <path
     id="path60"
     style="fill:#ffffff; stroke:none;"
     d="m 418.08398,66.232422 c -9.75635,0.729016 -18.66333,1.268499 -27.21289,1.673828 -3.4171,0.767766 -6.8674,1.53895 -10.28515,2.296875 5.07373,11.585335 3.45196,22.683463 -1,33.009765 1.6616,22.33731 4.44901,44.84922 9.77148,70.05664 3.31861,15.71708 8.98235,30.90871 15.08594,45.76758 3.1665,7.70869 8.77716,14.19014 12.58789,21.60156 1.48253,2.88335 5.54585,6.90033 3.23437,9.17383 -6.99364,6.87878 -17.46343,8.93989 -26.19531,13.41016 -29.10119,-0.0997 -58.34761,2.59546 -87.30469,-0.29883 -72.59336,-7.2558 -139.31841,-16.95478 -205.04296,-29.04883 h -0.002 c -2.324707,-0.42785 -4.651808,-0.85324 -6.974606,-1.28711 -4.775395,8.59247 -11.332949,25.22154 -17.988282,31.99219 0.629295,7.43891 1.803494,14.84862 2.515626,22.2832 4.590693,8.37839 6.492385,18.94716 13.771484,25.13477 30.748878,26.13813 75.927108,30.7588 113.777348,29.41015 67.09631,-2.39073 123.61773,-18.85759 183.91211,-47.82617 23.13256,-11.11435 43.55466,-27.15922 65.33203,-40.73828 7.92534,-7.70872 16.29569,-14.99384 24.14648,-22.77344 -6.32796,-14.00442 -12.44951,-28.04239 -18.35156,-42.16211 -6.07726,-2.48803 -12.03896,-5.29076 -18.11328,-7.78711 -20.42865,-11.20307 -11.79122,-5.8425 -27.25196,-16.11914 -1.68091,-1.11729 -3.31429,-2.30592 -5.03711,-3.35742 -0.0168,-0.0103 -0.0441,-0.0192 -0.0625,-0.0293 -0.20993,0.0341 -0.23708,0.0457 -0.71289,0.125 -13.80933,2.30268 12.15177,-17.01185 -1.5332,-14.05859 -0.35204,0.076 -0.4166,0.0894 -0.52734,0.11524 0.56924,-0.2379 1.1413,-0.45985 1.74804,-0.48047 0.37769,-0.0128 0.74526,-0.013 1.10157,-0.002 5.34455,0.16547 8.40569,2.93681 12.86914,5.92188 14.26665,9.54128 5.71999,4.22933 24.81054,14.8164 1.69544,0.70588 3.37704,1.44832 5.0586,2.19141 -13.45372,-33.52269 -25.60061,-67.63409 -36.12696,-103.011718 z m 16.2168,4.972656 c 11.04974,36.034492 23.99327,71.150422 38.28711,105.720702 0.57702,0.2024 1.15121,0.41433 1.73242,0.60547 8.42827,2.77172 17.17459,5.2077 26.06055,7.26367 -0.2157,-0.54862 -0.4354,-1.09692 -0.63281,-1.64648 -4.64028,-12.9176 -11.28651,-27.67885 -16.54297,-39.92188 -5.11413,-10.71297 -9.72964,-21.67903 -15.34375,-32.13867 -6.4763,-12.065842 -13.17477,-24.058821 -20.88867,-35.318359 -4.21726,-1.541767 -8.43535,-3.078887 -12.67188,-4.564453 z m -70.47656,2.675781 c -4.98642,1.083454 -10.08876,2.185762 -15.3125,3.302735 -12.52194,4.529846 -21.69849,7.565871 -49.93945,16.609375 -7.09924,2.273363 -14.21353,4.505044 -21.33204,6.720701 -2.13132,1.12201 -4.27071,2.22481 -6.41211,3.32227 -3.98372,3.07046 -8.12034,5.96957 -12.26171,8.86328 14.88774,5.25931 29.75305,10.57967 44.56054,16.06055 11.18286,4.13924 22.88985,7.43294 33.68164,12.45312 3.14228,-4.17984 6.26084,-8.3772 9.44727,-12.52344 4.23113,-5.50563 13.1971,-15.03499 19.16797,-25.4082 -0.7025,-9.745461 -1.20017,-19.479692 -1.59961,-29.400391 z m 106.18945,12.144532 c 3.4182,5.83463 6.72337,11.787674 10.00195,17.830079 5.86505,10.809 10.62963,22.18005 15.94532,33.26953 5.39713,12.55564 12.19466,27.62994 16.95508,40.86523 1.25907,3.50059 2.42813,6.74588 3.14648,10.00196 10.07764,1.77948 20.20234,3.03208 30.13672,3.68945 -11.53769,-15.17471 -22.12783,-31.08376 -31.95117,-47.36914 -7.75371,-12.8543 -15.11752,-26.10493 -21.92774,-39.66602 -0.23591,-0.14051 -0.46505,-0.26962 -0.70312,-0.41406 -7.25221,-4.399537 -13.21361,-10.640794 -19.82031,-15.960936 -0.58615,-0.754394 -1.18405,-1.500849 -1.78321,-2.246093 z M 213.87305,120.06641 c -2.75631,0.8602 -5.51186,1.72381 -8.26563,2.59179 -4.55217,1.89478 -9.10504,3.61256 -13.50586,4.89453 -0.44532,0.12973 -0.97609,0.34146 -1.51953,0.55274 -1.06103,1.25812 -2.12014,2.51767 -3.18164,3.77539 3.94327,-1.1205 7.781,-2.35039 11.4375,-3.67774 5.84565,-2.12188 11.51835,-4.66561 17.13672,-7.34179 -0.70648,-0.20998 -1.40887,-0.45919 -2.10156,-0.79492 z m 29.43554,2.97851 c -12.78388,6.13522 -25.23645,13.06192 -38.52539,17.99024 -9.81155,3.63871 -21.09577,6.72485 -32.51367,8.73437 -7.97443,9.4135 -15.9579,18.82039 -23.96094,28.20899 -2.41626,2.56749 -4.91454,5.05823 -7.24804,7.70117 -3.62996,4.11132 -2.89093,7.08633 -8.98243,4.53125 -7.08713,10.36384 -14.33076,20.62469 -21.52148,30.91992 62.61751,11.34403 126.41437,20.51611 196.28125,27.65039 27.9986,2.859 56.28811,0.3871 84.43164,0.58008 5.19823,1.65581 10.17963,5.63812 15.59375,4.96679 2.30363,-0.28564 -1.03348,-4.5776 -2.09375,-6.64257 -4.24627,-8.26999 -10.2737,-15.63786 -13.76953,-24.25196 -6.35871,-15.66855 -12.17813,-31.70582 -15.65625,-48.2539 -3.84462,-18.29179 -6.36359,-35.0493 -8.09766,-51.30078 -3.31579,4.61723 -6.65428,8.99636 -9.51171,13.07031 -3.36798,4.80179 -7.05956,9.369 -10.58985,14.05273 0.22135,0.13163 0.921,0.41199 0.66406,0.39453 -17.45665,-1.18647 -31.20785,-3.35504 -49.11523,-9.20703 -18.568,-6.06787 -37.00018,-12.53782 -55.38477,-19.14453 z M 0,146.18945 v 0.56641 c 0.06377232,-0.1018 0.12401244,-0.20583 0.18945312,-0.30664 C 0.12770756,146.36575 0.06123267,146.27157 0,146.18945 Z m 0.57617188,6.58789 C 0.38218362,153.04241 0.19128727,153.31365 0,153.58398 v 0.0586 c 0.14147439,-0.17405 0.28090912,-0.34968 0.42578125,-0.52149 0.0495243,-0.10444 0.10093222,-0.24576 0.15039063,-0.34375 z M 118.60156,184.88477 c -2.83087,2.25333 -5.68358,4.47931 -8.5,6.75 -0.14743,0.14808 -0.29727,0.29391 -0.44531,0.4414 -5.30813,7.01855 -10.880787,13.75677 -17.669922,19.20313 -0.852327,1.94309 -1.846949,3.93202 -2.880859,5.86718 2.058696,0.39067 4.11751,0.78207 6.177734,1.16797 7.753227,-11.15644 15.622437,-22.23526 23.318357,-33.42968 z m 20.07813,1.4707 c -0.165,0.31027 -0.31604,0.6281 -0.49024,0.93359 -0.26393,0.46288 0.12986,-0.13384 0.49024,-0.93359 z m 341.08789,7.63867 c 3.55675,8.3076 7.18333,16.58789 10.88086,24.84375 3.65319,-4.51905 8.91209,-12.12974 11.07031,-19.28906 -7.41711,-1.60131 -14.76088,-3.45679 -21.95117,-5.55469 z m 35.66406,8.20117 c -0.13463,0.4057 -0.26439,0.80993 -0.42187,1.22461 -4.74829,12.50341 -10.79032,21.44213 -17.98633,29.49219 8.24862,18.00276 16.78888,35.9105 25.56054,53.77148 10.6406,21.66653 23.36052,42.24832 34.81446,63.4961 2.6253,4.8701 6.25073,9.46273 9.10547,14.28906 5.75054,-1.94729 11.51431,-3.82822 17.3164,-5.53906 2.14047,-1.2786 4.44208,-2.5279 6.80078,-3.78125 0.39721,-14.87769 2.3385,-29.67517 6.4961,-44.08985 3.61436,-12.53124 9.39446,-23.63641 15.86719,-34.64062 -1.7885,-4.69595 -3.64058,-9.37082 -5.22461,-14.13867 -1.46801,-4.41863 -3.06247,-9.39712 -4.69532,-14.5625 -0.90606,-0.4079 -1.89239,-0.86297 -3.08203,-1.37305 -5.91963,-4.44013 -12.5041,-8.11119 -17.75976,-13.32031 -8.58504,-8.50901 -16.70671,-17.4612 -24.42774,-26.75196 -3.22276,-0.0494 -6.44404,-0.15612 -9.66015,-0.33593 -10.79728,-0.60367 -21.77867,-1.88208 -32.70313,-3.74024 z m 61.0332,3.72657 c -0.11519,0.006 -0.2305,0.0101 -0.3457,0.0156 4.66135,5.29556 9.48561,10.52347 14.53711,15.68945 -2.02522,-3.91337 -3.7311,-7.21948 -5.23437,-10.13672 -2.82049,-1.26127 -5.88413,-3.2504 -8.95704,-5.56835 z M 83.775391,230.51367 c -0.711721,1.90499 -1.413668,3.81394 -2.115235,5.72266 1.434425,-1.76937 2.86831,-3.53923 4.302735,-5.3086 -0.729042,-0.13869 -1.458604,-0.27477 -2.1875,-0.41406 z m 402.646489,13.15235 c -6.20491,5.86346 -13.02579,11.90306 -20.44336,19.26367 -22.57885,14.21171 -43.7346,30.98795 -67.73633,42.63672 -61.77873,29.98309 -120.48405,47.13313 -189.35157,49.83203 -14.03675,0.5501 -29.06402,0.27141 -44.09374,-1.45899 85.30322,16.39699 168.33068,26.00188 272.54882,31.1211 27.0356,1.328 54.02338,-2.51019 81.04688,-4.89258 11.29553,-3.02144 22.4237,-6.815 33.53711,-10.67188 -2.0066,-3.53601 -4.23791,-7.51552 -6.9336,-12.51953 -11.61076,-21.55309 -24.49271,-42.43891 -35.27539,-64.41797 -8.01141,-16.33019 -15.77975,-32.6014 -23.29882,-48.89257 z M 65.427734,283.0918 c -4.966243,15.14261 -9.717503,30.35804 -14.36914,45.60156 27.27369,6.75923 53.466056,12.83507 79.158206,18.27148 C 114.31642,342.14606 99.337004,334.9735 86.599609,324.58594 77.26028,316.96956 73.622998,304.27469 67.134766,294.11914 66.643294,290.43683 66.040677,286.764 65.427734,283.0918 Z m -18.484375,59.12109 c -1.80021,5.97703 -3.583981,11.95713 -5.365234,17.9375 1.085974,-0.38953 1.911063,-0.43746 2.044922,0.25977 0.154321,0.0505 0.309413,0.11054 0.464844,0.1875 0.304509,0.15077 0.574412,0.31096 0.820312,0.47851 0.122026,-0.0833 0.232688,-0.16418 0.357422,-0.24805 0.820128,-0.55101 1.091454,0.48877 1.111328,1.87696 0.726343,1.50177 0.267993,3.28738 -0.587891,5.01953 0.972871,0.32253 1.820741,0.85684 2.458985,1.75391 0.30053,0.42239 0.573858,0.85636 0.828125,1.29882 0.45232,-0.70403 0.893773,-1.41697 1.390625,-2.08984 0.404837,-0.54826 1.474018,-2.21271 1.337891,-1.54492 -0.11515,0.56487 -1.61651,2.39364 -2.4375,4.19726 0.666328,1.27001 1.176352,2.60856 1.548828,4.00391 0.173317,0.0355 0.325656,0.0806 0.52539,0.10352 0.153308,0.0175 0.28965,0.0222 0.439453,0.0371 1.369072,-3.21378 2.813534,-5.59735 4.216797,-7.20313 1.638099,-5.82797 2.359931,-8.32826 5.310547,-12.4375 0.01744,-0.21992 0.03019,-0.44572 0.04883,-0.66406 0.199377,-2.33538 1.01331,-4.57669 1.519531,-6.86524 1.001245,-0.53332 1.866094,-1.03966 2.667969,-1.52148 -6.173063,-1.487 -12.414299,-3.01981 -18.701172,-4.58008 z m 20.927735,5.12109 c -1.064132,1.28434 -2.156076,2.71403 -2.875,3.94922 0.960585,-1.16267 1.978022,-2.37852 3.242187,-3.86132 -0.123262,-0.0296 -0.243883,-0.0583 -0.367187,-0.0879 z m 9.632812,2.2793 c 0.275624,0.5077 0.496903,0.89141 0.806641,1.47266 0.520929,0.97756 0.58935,2.38481 -0.0059,3.32226 -0.731207,1.1617 -1.780108,2.08038 -2.84375,2.98633 -0.712666,10.27919 -0.206191,21.31578 0.580078,31.73633 7.073432,0.68113 14.114152,1.33097 21.128906,1.95703 3.940058,-11.43014 7.931358,-22.84394 11.982418,-34.23633 -10.426187,-2.30496 -20.968318,-4.71919 -31.648434,-7.23828 z M 123.75,360.02344 c -0.83045,3.33715 -1.68523,6.66827 -2.49805,10.00976 -1.63235,6.71063 -3.55093,14.76707 -5.43164,22.66211 92.94584,7.66456 181.46443,10.05287 273.09375,3.63867 C 290.63412,389.76451 210.21671,378.49049 123.75,360.02344 Z m 467.00195,11.0664 c -6.64387,2.0123 -13.24095,4.23255 -19.82226,6.52539 -0.43989,4.82332 -6.3803,8.29299 -9.21485,12.52735 -11.7579,1.19183 -26.57016,2.732 -41.96875,4.21289 -6.65695,1.71351 -13.37472,3.16002 -20.18945,4.16601 -133.02084,19.63657 -256.37,18.89253 -387.04102,8.04297 -0.96966,4.09217 -1.8469,7.79193 -2.74609,11.5918 1.42782,0.60306 2.80339,1.31487 4.08203,2.14844 1.08264,0.7058 -0.44006,2.5881 -1.0332,3.73633 -0.42955,0.83154 -0.96344,1.60124 -1.51563,2.35937 l -2.79882,7.74219 c -1.80293,5.44674 -5.42361,16.3765 -8.906254,26.91797 -2.726509,11.23991 -5.483143,21.69852 -9.736328,35.89257 0.342182,2.15376 0.685546,4.30735 1.029297,6.46094 0.265929,-0.35339 0.53271,-0.70614 0.794922,-1.0625 0.199549,-0.45322 0.406042,-0.90303 0.642578,-1.33789 0.40236,-0.73972 0.972766,-1.37499 1.458984,-2.0625 0.137948,0.0588 0.280825,0.10917 0.419922,0.16602 -0.08075,0.038 -0.837048,0.77879 -1.103515,1.35742 0.338233,-0.43324 0.684669,-0.85982 1.046875,-1.27344 0.05091,-0.0581 0.06306,-0.0766 0.06055,-0.082 4.23322,1.72931 8.967222,2.603 12.587892,5.38086 0.95949,0.73615 -0.79,2.30921 -1.44141,3.32812 -0.4845,0.75786 -1.02532,1.47688 -1.58008,2.18555 -0.0905,0.18612 -0.17605,0.37423 -0.26757,0.5586 -2.01464,4.05822 -4.056911,8.10427 -6.111332,12.14257 6.059772,-8.48485 12.328492,-16.81777 18.929682,-24.90234 0.0622,-0.0762 0.13061,-0.14699 0.19336,-0.22266 2.07262,-2.92049 3.50065,-4.66105 0.79297,-0.91796 1.81584,-2.06987 3.79493,-3.99712 5.67188,-6.01368 0.74469,-0.54486 1.57892,-2.28424 2.23437,-1.63476 0.45926,0.45507 0.89511,0.93161 1.31641,1.41992 0.23185,-0.12202 0.24519,-0.0625 0.10156,0.125 1.0121,1.18715 1.92574,2.459 2.78125,3.77734 7.03816,-10.54065 14.13072,-21.0457 21.29102,-31.50586 1.32061,-1.95279 2.64106,-3.90546 3.96289,-5.85742 0.80796,-2.23697 1.27996,-5.19731 3.24609,-4.86523 0.0896,0.0151 0.15966,0.0317 0.24805,0.0469 1.71002,-1.68536 3.70499,-1.88692 7.17969,1.6836 4.67862,1.58165 5.33997,3.43062 4.49609,5.58398 0.0343,0.0483 0.0632,0.086 0.0977,0.13477 1.43828,2.03272 -2.61028,4.24147 -3.93555,6.34961 -2.017,3.20849 -2.79311,4.43388 -4.25391,6.75781 2.12446,0.94476 4.02755,2.16359 5.2793,4.03711 1.16864,1.7491 -1.36194,3.6089 -2.98437,5.4414 0.1545,0.29063 0.30282,0.58615 0.46679,0.86914 -0.51015,0.89246 -1.0211,1.78528 -1.53125,2.67774 -0.58177,1.3079 -1.04894,2.67252 -1.74414,3.92383 -2.47408,4.45317 -5.69254,10.00025 -9.16211,15.88281 2.50604,-3.34827 4.98765,-6.72202 7.4336,-10.14063 0.26513,-0.49425 0.53831,-0.88995 0.84179,-1.16601 0.13077,-0.18404 0.26594,-0.36253 0.39649,-0.54688 0.0769,-0.10852 0.0106,-0.46246 0.11523,-0.38086 0.17346,0.13482 0.34592,0.27154 0.51953,0.40625 1.92187,-0.32449 5.0854,1.91903 12.01367,6.14454 0.6981,0.42577 -0.73643,1.46527 -1.20312,2.13671 -0.11042,0.15887 -0.26652,0.37315 -0.38281,0.53907 -0.13775,0.40157 -0.58938,1.10405 -0.125,0.35547 -2.55852,4.37487 -5.00296,8.81902 -7.67578,13.125 -1.20387,1.93944 -2.42154,3.86967 -3.63868,5.80078 0.40094,-0.22786 0.82949,-0.29497 1.30274,-0.0957 15.05338,6.29756 12.59938,7.28073 9.51953,10.89063 0.11244,0.43242 -0.31668,0.81814 -0.93164,1.1875 -0.18283,0.25494 -0.36389,0.51511 -0.53516,0.79687 -1.75082,2.88036 -3.27454,5.89214 -4.97461,8.80274 -3.22841,5.52722 -6.4466,11.06106 -9.70898,16.56836 2.64889,-2.6824 5.29561,-5.36722 7.94726,-8.04688 3.95341,-3.99515 7.85688,-8.04166 11.89649,-11.94922 0.0248,-0.50045 1.39793,-1.35477 1.05078,-1.02343 -0.35375,0.33763 -0.69931,0.68345 -1.05078,1.02343 -0.002,0.0369 -0.0143,0.077 0,0.10938 0.85003,1.92873 1.84878,3.78344 2.88672,5.61914 3.39395,-0.3623 6.78306,-0.63398 10.11328,-0.0508 1.28225,0.22553 -1.18371,2.34242 -2.00391,3.35351 -1.07081,1.32003 -2.42424,2.38291 -3.625,3.58594 -0.10569,0.1059 -0.21073,0.21244 -0.3164,0.31836 0.21212,0.37308 0.43337,0.7417 0.64062,1.11719 -5.13405,7.55429 -10.37064,15.03748 -15.66015,22.48242 0.75989,-0.46637 1.52524,-0.92415 2.28124,-1.39648 2.93048,1.20149 8.4317,-7.39871 12.75782,-5.67969 2.0737,0.824 6.24144,2.59823 7.76172,4.14844 2.04855,-0.94809 7.19332,3.77725 7.0332,6.61132 -0.0684,1.21099 -0.47488,2.63238 -1.12305,4.19141 0.0658,0.28645 -0.009,0.51085 -0.27929,0.65625 -0.4884,1.08766 -1.09231,2.24208 -1.78516,3.43945 -0.0429,0.2635 -0.0886,0.52631 -0.15625,0.78516 -0.40904,1.56549 -1.10401,3.04423 -1.75977,4.52344 -2.44485,5.51498 -5.36279,10.77965 -8.49414,15.92187 0.41186,-0.26298 0.825,-0.52371 1.24414,-0.77539 1.40595,-0.84419 3.48924,-3.04025 4.57422,-1.81055 0.8798,0.99715 1.57379,1.80746 2.2793,2.63282 0.0272,-0.0152 0.0548,-0.0298 0.082,-0.0449 7.30573,-4.12749 13.61732,-11.1413 21.91602,-12.38282 0.75146,-0.11242 1.48591,-0.1016 2.20898,-0.0137 0.52312,-0.34542 1.04553,-0.68962 1.55078,-1.06055 0.22165,-0.16273 4.54651,-4.34696 4.56836,-4.12695 0.2627,2.64542 0.84221,5.55403 1.05664,8.36914 2.14427,1.35355 4.28961,2.77844 6.55274,3.55078 0.01,0.003 0.0217,-0.004 0.0312,-0.002 0.29459,-0.31772 0.5852,-0.63892 0.87109,-0.96875 0.28317,-0.32669 -0.4467,1.03869 -0.87109,0.96875 -1.96218,2.11619 -4.12456,3.96043 -6.55078,5.52734 0.89707,-0.0914 1.79282,-0.1842 2.68945,-0.27539 0.26431,-0.0958 0.52657,-0.19749 0.79101,-0.29297 2.29448,-0.56243 4.52452,-1.54848 6.88282,-1.6875 0.41779,-0.0247 -0.66555,0.98867 -0.82227,1.26368 0.0834,-0.0107 0.16659,-0.0181 0.25,-0.0293 2.69298,-1.20744 5.17034,-5.40051 7.71875,-4.01367 1.16564,0.63433 2.14012,1.26692 2.97461,1.89648 3.9852,-0.75523 7.93837,-1.14282 11.76172,-0.0664 1.595,0.44908 3.04575,0.89327 4.36523,1.33399 0.0456,-0.009 0.0911,-0.0186 0.13672,-0.0273 0.52072,-0.15724 0.99586,-0.4505 1.48047,-0.70118 0.14672,-0.0759 0.45543,-0.45117 0.39649,-0.29687 -0.0848,0.22183 -0.15939,0.45279 -0.23438,0.68359 6.78563,-1.31449 13.56582,-2.66054 20.33203,-4.08008 4.57434,-1.00965 9.20276,-4.25795 13.72266,-3.02734 0.18849,0.0513 0.35189,0.10777 0.53515,0.16016 1.05531,-0.23057 1.01722,-0.24415 0.10938,0.0312 11.01299,3.17974 12.52899,8.28074 6.63086,12.35156 -0.44129,0.30457 -0.90087,0.53845 -1.36914,0.74414 -1.23397,1.54693 -3.10512,2.24145 -5.24805,2.57031 0.33021,-0.0247 0.65999,-0.0539 0.99023,-0.0781 6.9289,-0.50812 14.39386,-3.64644 20.81836,-1.00196 1.01925,0.41955 1.89221,1.0251 2.66797,1.75586 0.18125,-0.13278 0.36471,-0.26197 0.54102,-0.40039 -0.0781,0.23909 -0.14519,0.48579 -0.20899,0.73633 2.98813,3.07066 4.46602,8.07318 7.07618,11.62695 0.55638,-0.47871 2.18809,-1.9554 1.66796,-1.4375 -0.81983,0.81639 -1.60849,1.68797 -2.56835,2.33399 -3.88078,2.61189 -8.55048,2.69964 -12.67774,4.69141 -1.5766,0.49211 -3.13205,1.0667 -4.70312,1.58007 0.24652,0.11766 0.49439,0.23228 0.74023,0.35157 0.40694,-0.015 0.81376,-0.0259 1.2207,-0.041 7.48984,-0.34132 10.66666,-0.97994 17.43946,0.0723 0.71093,0.11004 1.29479,0.23149 1.82422,0.36328 1.75508,-0.0771 3.51054,-0.15322 5.26562,-0.23047 0.52688,-0.34622 1.07092,-0.66653 1.63086,-0.95117 0.1124,-0.0571 0.32909,-0.14071 0.50977,-0.21485 0.50495,-0.84262 1.09696,-1.62665 1.8164,-2.32617 7.09932,-6.90271 48.6486,-19.88127 52.75195,-20.87695 10.7564,-2.61003 21.11495,-4.60351 31.41993,-5.89649 1.00502,-1.02303 3.09243,-1.32186 4.32617,-2.23828 0.28,-0.20799 -0.65639,0.23679 -0.98438,0.35547 2.17172,-2.16036 4.05256,-4.65924 6.51563,-6.48047 1.75249,-1.29581 3.5149,-2.58026 5.28515,-3.85547 -6.53039,0.7412 -13.60688,2.38961 -10.29296,-12.76758 0.95806,-4.38196 6.42968,-6.29855 10.04101,-8.95898 2.42587,-1.78712 4.89008,-3.52119 7.3711,-5.23047 -2.07152,-1.12454 -1.26898,-3.50614 1.25195,-12.89648 0.29632,-1.10379 2.14432,-0.80826 3.2539,-1.08203 3.35785,-0.82849 6.7151,-1.70573 10.13477,-2.22266 2.50446,-0.37858 7.16025,-0.93943 12.69531,-1.56641 8.39628,-4.8787 16.8797,-9.6178 25.4668,-14.15234 0.11296,-0.67747 0.16621,-0.94858 0.28711,-1.71094 0.13282,-0.83758 1.58769,-0.60043 2.39648,-0.85547 1.87264,-0.59052 3.74546,-1.17846 5.62696,-1.74023 0.83592,-0.42499 1.67774,-0.83698 2.51562,-1.25781 -1.20607,-2.68209 -2.41575,-5.44143 -3.16992,-8.28516 v -0.002 c -0.38337,-1.44597 -0.66028,-2.91093 -0.73828,-4.40039 -0.10266,-1.96027 3.16733,-2.21394 6.5332,-2.36914 0.92109,-0.94905 1.89008,-1.84559 2.94727,-2.64454 4.64647,-3.5113 9.87606,-6.15138 15.02734,-8.90234 12.51844,-15.15936 24.47984,-30.77333 36.4961,-46.33984 -4.50928,3.10246 -8.91999,6.35152 -13.41016,9.48242 -0.38699,-1.31907 -0.75135,-2.35244 -1.10156,-3.1875 -0.54532,0.61677 -1.09661,1.22775 -1.63868,1.84766 -1.84534,2.58398 -3.64819,5.1982 -5.53515,7.75195 -0.004,0.005 -0.01,0.009 -0.0137,0.0137 -0.75228,1.96512 -1.54989,3.20212 -2.47657,2.57227 -3.91031,-2.65783 -7.12726,-6.35481 -9.79297,-10.25977 -0.0481,-0.0704 0.0674,-0.24099 0.26954,-0.46094 -0.37952,-0.81239 0.58666,-1.46989 2.20898,-2.05078 0.0488,-0.051 0.15321,-0.1414 0.17774,-0.17578 1.24638,-1.74831 2.33863,-3.60148 3.50781,-5.40234 16.70424,-19.52034 35.28429,-37.29445 53.9375,-54.91797 0.24108,-1.45458 0.48175,-2.909 0.72461,-4.36328 -0.7141,-3.71282 -1.19013,-7.79178 -2.18164,-12.85547 -0.41188,-4.46795 -0.71848,-8.9464 -0.90821,-13.42774 z M 195.35352,585 c 0.10007,-0.22287 0.18892,-0.43889 0.27929,-0.65625 -0.41464,-1.80559 -6.56544,-6.11559 -6.6875,-9.22852 -2.39101,-1.04799 -4.78281,-2.09458 -7.17383,-3.14257 0.98839,1.12561 1.9353,2.28738 2.86524,3.46484 1.10859,-0.81572 1.03804,-0.75299 0.11328,0.14062 0.71673,0.90954 1.4267,1.8265 2.13867,2.74024 2.89744,1.29375 4.60984,4.69103 6.99414,6.89453 -0.002,0.0149 -0.002,0.03 -0.004,0.0449 0.30285,-0.0343 0.57501,-0.0563 0.89062,-0.0957 0.25131,-0.0314 0.44315,-0.0865 0.58399,-0.16211 z m -68.71485,-94.43164 c -0.0348,-0.0408 -0.0665,-0.0844 -0.10156,-0.125 -0.6663,0.35067 -2.57954,1.70756 -4.125,2.63281 0.39131,0.27162 0.77792,0.54147 1.13086,0.80274 0.99409,-1.05272 1.80713,-1.89035 2.98047,-3.15625 0.0807,-0.0871 0.0736,-0.0999 0.11523,-0.1543 z m -9.32422,6.10352 c -0.26659,0.30385 -0.53483,0.60671 -0.79297,0.91796 -0.51175,0.72111 -1.02486,1.4688 -1.51953,2.21289 0.7279,-0.98889 1.85568,-2.49937 2.3125,-3.13085 z M 558.99609,381.82031 c -0.41789,0.14793 -0.83598,0.29558 -1.2539,0.44336 2.58327,2.47555 2.86277,2.44935 1.2539,-0.44336 z M 77.265625,403.41992 c 1.096455,11.685 2.431593,23.33686 3.941406,34.96485 3.702993,-11.20235 7.458798,-22.38774 11.261719,-33.55665 -5.054723,-0.4558 -10.123206,-0.92461 -15.203125,-1.4082 z M 589.33008,424.8418 c -1.05579,1.0152 -2.11832,2.02358 -3.16992,3.04297 0.97814,-0.56932 1.9661,-1.12335 2.94922,-1.68555 0.0735,-0.45248 0.14716,-0.90494 0.2207,-1.35742 z m -8.33399,36.83593 c -6.25533,8.02838 -11.54621,14.80123 -17.95898,22.97657 0.3882,-0.21577 0.77582,-0.43274 1.16406,-0.64844 4.87267,-2.70718 9.11585,-5.06348 13.36914,-7.42188 0.16324,-0.27913 0.32884,-0.55686 0.49219,-0.83593 -0.0384,-0.003 -0.0769,-0.009 -0.11523,-0.0117 0.44167,-8.04168 0.0483,-6.48308 3.04882,-14.0586 z M 164.15625,481.7168 c -0.005,-0.01 -0.0339,0.0157 -0.0918,0.0898 -0.0396,0.0507 -0.0814,0.0997 -0.12109,0.15039 0.0127,0.0243 0.0263,0.048 0.0391,0.0723 0.093,-0.15273 0.18122,-0.29664 0.17383,-0.3125 z m 337.8418,51.36718 c -0.0433,0.15777 -0.10814,0.33604 -0.16602,0.50782 0.25224,-0.13158 0.5054,-0.26136 0.75781,-0.39258 -0.22237,-0.0433 -0.34025,-0.0644 -0.59179,-0.11524 z m 3.67383,0.88477 c -1.82048,0.91876 -1.86474,3.48598 -1.64258,6.29883 0.11644,-0.21538 0.23369,-0.43052 0.34765,-0.65039 0.62884,-4.08607 1.93446,-5.13864 1.29493,-5.64844 z m -7.79102,8.20508 c -0.7716,1.86732 -1.04221,3.25597 -0.0352,3.40429 -0.24931,-0.67142 -0.20728,-1.74192 0.0352,-3.40429 z m 13.94531,2.15234 c -0.65123,0.3343 -1.30113,0.67105 -1.95117,1.00781 0.78348,-0.0801 2.65514,-0.27606 3.20117,-0.33203 -0.0195,-0.004 -0.0391,-0.005 -0.0586,-0.01 -0.4661,-0.10558 -0.85581,-0.34203 -1.19141,-0.66602 z m -46.77539,26.9668 c -3.25586,2.13634 -6.50783,4.27929 -9.7207,6.47656 3.98301,-0.44517 7.96483,-0.89695 11.94726,-1.35937 1.14332,-0.60597 2.29048,-1.20525 3.43946,-1.80078 -0.0548,-0.77166 0.12538,-1.49651 0.49804,-2.1836 -2.05853,-0.35828 -4.11332,-0.73666 -6.16406,-1.13281 z m 8.33008,1.49609 c -0.14582,0.21487 -0.2833,0.43891 -0.42383,0.66016 0.35818,-0.18341 0.71564,-0.36811 1.07422,-0.55078 -0.21687,-0.036 -0.4336,-0.073 -0.65039,-0.10938 z m -239.04883,34.60742 c -0.0519,-0.005 -0.0846,0.008 -0.0742,0.0488 0.038,0.14985 0.0608,0.31139 0.0937,0.46485 0.12073,-0.0828 0.24531,-0.16018 0.36524,-0.24414 0.10422,-0.073 -0.22922,-0.25314 -0.38477,-0.26954 z m 57.38867,8.99219 c -0.43099,0.0141 -0.86119,0.028 -1.29297,0.041 -0.0632,0.0259 -0.10661,0.0469 -0.17382,0.0742 0.48884,-0.0402 0.97788,-0.076 1.46679,-0.11524 z" />
  <path
     id="path62"
     style="fill:#ce7f82;stroke:none"
     d="m 319.375,29.570312 c -13.15738,-0.03542 -26.31725,0.769665 -39.35938,2.46875 -10.33999,1.3471 -21.64197,2.369952 -31,7.28125 5.063,2.1048 11.70801,-0.13184 17,-0.86914 10.58101,-1.4743 21.352,-1.946838 32,-2.960938 17.61701,-1.6776 36.30416,-2.291978 54,-1.080078 10.688,0.7319 21.256,2.880457 32,2.910156 -9.11299,-5.494599 -23.626,-5.132621 -34,-6.169921 C 339.84026,30.13294 329.60851,29.597866 319.375,29.570312 Z m 6.71484,6.507813 c -4.69716,-0.01657 -9.39025,0.07615 -14.07422,0.28125 -9.01499,0.394701 -17.017,3.936016 -26,4.791016 -12.091,1.1506 -23.95199,0.15564 -36,2.61914 -15.859,3.243 -31.818,9.945447 -47,15.498047 -38.39796,14.0436 -74.11592,31.463483 -102.16992,62.048832 -5.403809,5.892 -12.253931,10.1159 -17.740231,16.0039 -17.483298,18.763 -32.908353,40.588 -43.501953,64 -4.0563,8.965 -11.488091,19.844 -10.587891,30 4.0233,-3.449 5.903394,-8.315 8.246094,-13 3.6665,-7.333 7.251418,-14.715 11.011719,-22 9.286698,-17.993 20.451679,-32.71 34.742187,-47 -10.78291,17.315 -27.1543,33.599 -32,54 4.1626,-3.802 7.2877,-8.737 11,-13 -0.4391,5.604 -4.067206,10.148 -6.691406,15 -2.4846,4.594 -4.391991,9.6341 -7.275391,13.9961 -2.0248,3.063 -4.359803,5.5119 -8.033203,6.0039 -15.9853,27.388 -23.583527,61.542 -24.960937,93 -0.920791,21.026 0.947037,42.055 0.960937,63 -1.8968,-6.358 -2.0876,-13.415 -3,-20 -1.0644,-7.682 -3.3762565,-15.248 -3.9101562,-23 -0.6020001,-8.742 0.9043562,-17.296 0.9101562,-26 -3.2806,6.826 -2.833925,15.584 -3.015625,23 -0.1772,7.235 -0.8459969,13.731 -0.1542969,21 0.4428,4.652 -0.1032562,9.348 0.3398438,14 2.3869,25.066 8.1795941,49.849 15.1210941,74 2.6889,9.355 5.319915,19.161 9.416015,28 2.0697,4.466 3.799269,8.671 8.292969,11 -2.1252,-8.947 -6.779166,-17.367 -9.947266,-26 -8.0847,-22.032 -15.052734,-43.292 -15.052734,-67 h 2 c 0.0355,12.874 3.062225,25.679 6.578125,38 1.4969,5.245 2.626275,11.856 7.421875,15 -0.4249,-20.587 -10.5718,-40.252 -11,-61 3.1279,9.891 4.043537,20.822 6.210937,31 3.468901,16.289 8.105497,32.371 13.841797,48 2.3654,6.445 6.616166,22.527 13.947266,24 3.6023,12.504 9.646502,28.571 20,37 l -1,-3 c 8.4759,9.938 15.4129,21.14 24,31 h -2 c 6.881005,9.807 15.905035,19.63186 24.999995,27.42188 4.101,3.51197 7.79301,6.91512 13,8.57812 -5.08298,-7.196 -12.76297,-12.763 -19,-19 7.079,4.928 13.25501,11.16278 20,16.55078 9.56102,7.638 19.77101,14.6621 30,21.3711 17.886,11.73099 38.91401,20.24472 59,27.38672 71.395,25.387 152.06305,20.01823 221,-9.88477 6.231,-2.703 13.003,-4.46228 19,-7.61328 24.35801,-12.799 46.94908,-31.22239 67,-49.90039 46.81201,-43.606 78.02946,-105.09015 88.56446,-167.91016 2.604,-15.529 3.70948,-31.315 4.39648,-47 0.233,-5.33 -1.08479,-10.75 -0.63281,-16 0.46101,-5.355 1.98895,-10.629 2.50195,-16 1.196,-12.511 0.93416,-26.461 0.0801,-39 -3.078,-44.933 -21.24911,-86.229 -48.03711,-122 -11.26624,-15.04488 -23.8017,-30.91994 -39.61914,-41.52148 l -0.002,-0.002 c -8.6e-4,-3e-4 -0.01,-0.003 -0.01,-0.004 -0.002,-8e-4 0.001,0.001 -0.004,-0.004 -0.009,-0.002 -0.012,-0.007 -0.0156,-0.01 -10e-4,-1.2e-4 -0.003,-0.002 -0.004,-0.002 -0.004,-8.6e-4 -0.009,0.001 -0.0137,-0.002 0.001,0.001 -0.005,-0.003 -0.004,-0.002 -9.9e-4,-6.3e-4 -0.002,0.001 -0.004,-0.002 -0.003,-0.003 -0.01,-0.004 -0.01,-0.008 l -0.002,-0.002 -0.002,-0.002 h -0.0117 l -0.0117,-0.0117 c -0.002,0 -0.0107,-0.0117 -0.0117,-0.0117 -0.004,-3.9e-4 -0.007,-0.008 -0.0137,-0.0117 -0.003,-0.002 -0.008,-0.01 -0.0117,-0.0117 -9.9e-4,-6.2e-4 -0.008,-0.0107 -0.0117,-0.0117 -9.9e-4,-1.5e-4 -0.0107,-0.0117 -0.0117,-0.0117 -0.0143,-0.008 -0.0229,-0.0165 -0.0332,-0.0234 -10e-4,-9.7e-4 -0.0135,-0.004 -0.0117,-0.004 -0.003,-0.001 -0.0153,-0.0125 -0.0117,-0.0117 -0.0119,-0.005 -0.0167,-0.007 -0.0273,-0.0137 l -0.002,-0.0117 c -0.002,-0.002 -0.01,-0.002 -0.0117,-0.004 -0.005,-0.004 -0.009,-0.008 -0.0137,-0.0117 -0.005,-3e-5 -0.003,3.3e-4 -0.004,0 -0.002,-6.1e-4 -0.0163,-0.009 -0.0117,-0.0117 -0.005,-0.004 -0.009,-0.008 -0.0137,-0.0117 -10e-4,-8.2e-4 -0.01,0.001 -0.0117,-0.002 -0.002,-6.4e-4 -0.009,-0.009 -0.0117,-0.0117 -0.002,-5.2e-4 -0.01,8.2e-4 -0.0117,0 -0.0503,-0.021 -0.10152,-0.0392 -0.15234,-0.0586 -0.005,-0.001 -0.009,-0.0107 -0.0137,-0.0117 l -0.002,-0.002 c -0.005,-0.002 -0.0109,-0.01 -0.0156,-0.0117 -0.005,-0.002 -0.009,-0.009 -0.0117,-0.0117 -0.0102,-0.004 -0.0217,-0.009 -0.0312,-0.0117 -0.026,-0.009 -0.05,-0.0199 -0.0742,-0.0332 l -0.002,-0.002 c -0.011,-0.006 -0.0226,-0.01 -0.0352,-0.0117 -0.0329,-0.003 -0.0271,-0.002 -0.0605,0 -0.004,1.9e-4 -0.009,-0.0107 -0.0117,-0.0117 h -0.002 c -2.8e-4,2e-5 -0.009,6e-5 -0.0117,0 -0.006,-3.9e-4 -0.0132,-0.001 -0.0195,0.002 -0.0217,-1.6e-4 -0.0409,-0.0107 -0.0625,-0.0117 -0.0114,-3.7e-4 -0.0218,0 -0.0332,0 h -0.0332 c -0.0788,0.0145 -0.15845,0.0246 -0.23828,0.0332 -0.003,2.9e-4 -0.009,0.008 -0.0117,0.008 -0.002,7.9e-4 -0.003,-0.001 -0.004,0.002 -0.01,0.007 -0.0217,0.0127 -0.0312,0.0195 -0.0141,0.01 -0.0304,0.0161 -0.0449,0.0254 -0.008,0.005 -0.0153,0.0109 -0.0234,0.0156 -0.0151,0.023 -0.0372,0.0396 -0.0547,0.0606 v 0.002 c -0.0113,0.0208 -0.0211,0.0421 -0.0332,0.0625 -0.0128,0.0218 -0.0277,0.043 -0.041,0.0644 -0.01,0.0159 -0.0196,0.0313 -0.0293,0.0469 -10e-4,0.007 -0.003,0.0179 -0.004,0.0215 -0.003,0.0202 -0.009,0.0404 -0.0117,0.0605 0.003,0.0801 0.007,0.16018 0.0117,0.24023 0.003,0.01 0.006,0.0191 0.008,0.0293 0.0109,0.044 0.0218,0.0893 0.0156,0.13477 0.005,0.008 0.0123,0.0154 0.0137,0.0234 10e-4,0.006 -8e-4,0.0102 -0.002,0.0137 v 0.002 c 0.007,0.0128 0.007,0.008 0.01,0.0195 0.007,0.0215 0.0128,0.0444 0.0176,0.0664 0.001,0.007 0.002,0.0129 0.004,0.0195 10e-4,0.005 0.002,0.0104 0.004,0.0156 0.002,0.005 0.003,0.0104 0.004,0.0156 10e-4,0.002 0.003,-2.7e-4 0.004,0.002 0.0155,0.0282 0.007,0.0139 0.0254,0.0469 0.006,0.0112 6.5e-4,0.0168 -0.002,0.0234 0.002,5.1e-4 0.004,0.002 0.004,0.002 0.38851,0.68749 0.81422,1.36079 1.25,2.02929 0.0169,0.0123 0.0377,0.0218 0.0527,0.0371 0.004,-0.007 0.0271,0.0464 0.0371,0.0684 0.009,0.004 0.0647,0.0664 0.0684,0.0703 0.0251,0.0182 0.041,0.0522 0.0664,0.0703 0.002,10e-4 2.7e-4,-0.01 0,-0.0117 0.0167,0.0143 0.0383,0.0264 0.0527,0.043 0.0165,0.0189 0.0252,0.0416 0.0391,0.0625 0.008,0.0135 0.0138,0.0288 0.0234,0.041 0.002,0.003 0.008,-0.001 0.0117,0.002 0.013,0.0108 0.0252,0.025 0.0371,0.0371 0.0329,0.0337 0.0574,0.0622 0.084,0.10156 0.0316,0.0422 0.0522,0.0961 0.0859,0.13672 0.004,0.004 0.009,0.008 0.0137,0.0117 0.0137,0.0124 0.0282,0.0277 0.041,0.041 0.0541,0.0442 0.0778,0.11416 0.12891,0.16016 0.0223,0.0622 0.0605,0.10836 0.0957,0.16211 l 0.0117,0.002 c 0.011,0.008 0.0214,0.0147 0.0332,0.0234 0.0312,0.016 0.054,0.0409 0.0781,0.0664 0.009,0.009 0.0172,0.0163 0.0254,0.0254 0.0145,0.0161 0.0281,0.035 0.043,0.0508 0.0365,0.0386 0.0825,0.0651 0.11914,0.10352 0.0165,0.0173 0.0337,0.034 0.0488,0.0566 0.0159,0.0158 0.0302,0.0306 0.0469,0.0449 0.11366,0.0497 0.22239,0.17358 0.29883,0.25977 -0.0242,-0.13783 0.26521,0.31562 0.1875,0.19336 0.0723,0.0628 0.14051,0.13228 0.20703,0.20117 0.0448,0.0548 0.10788,0.094 0.15039,0.15039 0.0335,0.0445 0.0597,0.0953 0.0918,0.14063 0.006,0.009 -0.009,-0.0222 -0.0137,-0.0312 -0.002,-0.009 0.0269,0.0362 0.041,0.0566 0.008,0.005 0.0188,0.0137 0.0254,0.0176 0.0148,0.009 0.0865,0.10688 0.10547,0.13282 0.0505,0.0517 0.10501,0.0994 0.15625,0.15039 0.022,0.0379 0.0685,0.0601 0.0918,0.0977 0.0804,0.1282 0.12278,0.22512 0.0625,0.0918 0.11644,0.0704 0.21133,0.17234 0.30078,0.27344 0.0885,0.0905 0.18001,0.17613 0.26953,0.26562 0.12135,0.0915 0.18463,0.22034 0.26172,0.34571 0.004,0.006 0.01,0.01 0.0137,0.0156 0.0251,0.0344 0.0467,0.072 0.0703,0.10742 0.0198,0.0261 0.0377,0.0528 0.0586,0.0781 0.0727,0.0876 0.0981,0.14743 0.13281,0.20898 0.0823,0.056 0.15343,0.12668 0.22852,0.19141 0.0208,0.0179 0.0476,0.0288 0.0664,0.0488 0.0433,0.0459 0.0793,0.0976 0.11914,0.14648 0.0919,0.12323 0.19025,0.24175 0.28711,0.36133 l 0.0117,0.0117 c 0.0295,0.0234 0.0489,0.0561 0.0762,0.0801 0.0214,0.0194 0.0425,0.0379 0.0625,0.0586 0.004,0.004 0.0158,0.0151 0.0117,0.0117 0.0208,0.0149 0.0109,0.002 0.0547,0.0508 0.0307,0.0298 0.0484,0.0573 0.0664,0.0996 -0.004,-0.009 -0.0191,-0.0274 -0.0117,-0.0254 0.01,0.002 0.0689,0.10666 0.0703,0.10937 0.002,0.006 0.0117,0.0114 0.0117,0.0137 1e-4,6.1e-4 0.0117,0.0125 0.0117,0.0117 10e-4,8.9e-4 0.01,0.0107 0.0117,0.0117 0.004,0.003 0.006,0.008 0.01,0.0117 -0.005,-0.0109 -0.009,-0.0173 -0.0137,-0.0254 0.01,0.0131 0.0197,0.0279 0.0293,0.041 l 0.0117,0.002 c 0.004,0.005 0.008,0.0112 0.0137,0.0176 0.0181,0.0105 0.052,0.0399 0.0625,0.0586 0.008,0.0146 0.0119,0.0309 0.0176,0.0469 0.006,0.008 0.0137,0.0156 0.0195,0.0234 l 0.0117,0.002 c 0.003,0.004 0.008,0.009 0.0117,0.0137 0.0183,0.0245 0.0347,0.0508 0.0547,0.0742 0.061,0.11517 0.18414,0.17857 0.25391,0.28711 0.0132,0.0205 0.0227,0.0407 0.0332,0.0625 0.0246,0.0317 0.0341,0.0444 0.0586,0.0801 0.005,0.007 0.0178,0.0309 0.0137,0.0234 -0.0163,-0.0301 -0.004,-0.0178 -0.0293,-0.0371 -0.004,-0.003 -0.008,0.001 -0.0117,-0.006 0.007,0.021 0.0108,0.0419 0.0293,0.0586 0.0403,0.0239 0.0521,0.0489 0.0859,0.0879 0.006,0.009 0.0151,0.0164 0.0215,0.0254 0.0137,0.0169 0.0167,0.0372 0.0293,0.0547 9.9e-4,0.002 0.01,-0.001 0.0117,0 0.009,0.008 0.0139,0.0179 0.0215,0.0273 l 0.0117,0.01 c 0.0108,0.008 0.0198,0.0162 0.0293,0.0254 0.0432,0.0409 0.0553,0.10231 0.0996,0.13672 0.0413,0.0277 0.0665,0.0672 0.0879,0.11132 0.003,0.005 0.008,0.0119 0.0117,0.0156 v 0.01 c 0.0215,0.0225 0.045,0.0478 0.0527,0.0742 3.7e-4,0.001 -3.6e-4,0.01 0,0.0117 0.016,0.0199 0.0365,0.0343 0.0547,0.0645 0.007,0.01 0.007,0.005 0.0293,0.0508 0.004,0.009 -0.0117,-0.0159 -0.0117,-0.0254 -1.3e-4,-0.004 0.009,0.009 0.0117,0.0117 0.004,0.003 0.009,0.008 0.0117,0.0117 0.005,0.008 0.009,0.0135 0.0137,0.0215 0.005,-0.003 0.0708,0.0773 0.0742,0.082 0.0246,0.0148 0.0358,0.0402 0.0508,0.0625 9.9e-4,0.001 -10e-4,-0.01 0,-0.0117 3.1e-4,-0.003 0.01,0.01 0.0117,0.0117 0.0103,0.0171 0.0511,0.0392 0.0586,0.0566 0.0107,0.0249 0.0669,0.17952 0.0117,0.0176 0.003,0.005 0.008,0.011 0.0117,0.0156 0.01,0.009 0.0191,0.0203 0.0293,0.0293 0.005,0.005 -0.0184,-0.0152 -0.0117,-0.0156 0.0156,-10e-4 0.0596,0.0586 0.0664,0.0664 0.003,0.008 0.009,0.0137 0.0117,0.0215 v 0.0117 c 9.9e-4,0.004 0.01,0.008 0.0117,0.0117 0.016,0.0217 0.0254,0.0315 0.041,0.0566 0.0305,0.016 0.0438,0.0303 0.0762,0.0645 0.0137,0.024 0.0147,0.0348 0.0195,0.0488 l 0.0117,0.008 h 0.0117 c 0.008,0.007 0.0135,0.0112 0.0215,0.0176 0.003,0.004 0.009,0.008 0.0117,0.0117 0.013,0.01 0.0251,0.0261 0.0371,0.0371 0.0104,0.0115 0.0189,0.0226 0.0293,0.0332 0.008,0.007 -0.0128,-0.0172 -0.0195,-0.0254 0.0583,0.0361 0.0648,0.0782 0.10937,0.125 0.0214,0.0478 0.0521,0.0774 0.0918,0.10937 0.0432,0.0342 0.0597,0.0878 0.082,0.13672 0.005,0.002 0.009,0.009 0.0176,0.0117 0.0901,0.0474 0.0854,0.0426 0.17578,0.13086 0.005,0.005 0.007,0.009 0.0156,0.0176 l 0.0117,0.0117 c -6.7e-4,-4.1e-4 0.0117,0.0117 0.0117,0.0117 l 0.0117,0.0117 h 0.01 v 0.0117 c 0.006,0.008 0.009,0.0105 0.0156,0.0176 0.0378,0.0303 0.0358,0.0215 0.0254,0.0117 h 0.0117 c 0.10226,0.0634 0.16261,0.11045 0.2461,0.2207 -0.008,-0.0103 -0.0229,-0.0173 -0.0254,-0.0293 -0.002,-0.01 0.0142,0.0144 0.0215,0.0215 0.0229,0.0219 0.062,0.0557 0.0625,0.0625 0.0294,0.0175 0.0578,0.033 0.084,0.0547 0.0499,0.0416 0.16336,0.22937 0.1875,0.2871 9.4e-4,0.002 0.01,0.009 0.0117,0.0117 0.0331,0.034 0.0684,0.0658 0.10157,0.0996 0.0529,0.0633 0.11994,0.11151 0.17382,0.17383 0.0226,0.0261 0.074,0.11292 0.11914,0.14063 0.008,0.005 0.0198,0.01 0.0293,0.0117 0.0337,0.0266 0.0658,0.0536 0.0996,0.0801 0.0313,0.0328 0.0651,0.0633 0.0918,0.0996 0.0915,0.12215 0.11689,0.19008 0.17578,0.31055 0.006,0.008 0.0114,0.0136 0.0176,0.0215 0.003,0.005 0.008,0.0109 0.0117,0.0156 0.009,0.012 0.0207,0.0212 0.0293,0.0332 0.0109,0.0141 0.0194,0.0282 0.0293,0.043 0.009,0.0118 0.015,0.0275 0.0215,0.041 0.003,0.002 0.01,0.01 0.0117,0.0117 8.1e-4,8.5e-4 0.005,0.009 0.008,0.0117 v 0.0117 h 0.004 c 0.0136,0.0138 0.0255,0.031 0.0391,0.0449 0.003,0.005 0.01,0.008 0.0117,0.0117 0.007,0.008 0.0103,0.0176 0.0176,0.0254 0.0254,0.0198 0.0531,0.04 0.0742,0.0625 0.0562,0.0578 -0.0194,-0.0196 0.0508,0.0723 9.5e-4,10e-4 0.01,-0.0117 0.0117,-0.0117 0.007,0.003 0.0133,0.009 0.0195,0.0137 0.002,0.002 0.01,0.0107 0.0117,0.0117 0.007,0.006 0.0141,0.012 0.0215,0.0176 0.0382,0.0375 0.0731,0.0777 0.11133,0.11523 0.008,0.008 0.0173,0.0153 0.0254,0.0234 0.008,0.008 0.0145,0.0123 0.0215,0.0215 0.003,0.004 0.0432,0.0708 0.0527,0.0762 0.0507,0.0257 0.0619,0.0493 0.0625,0.0664 0.0137,0.008 0.0278,0.0133 0.0371,0.0254 0.0159,0.0208 0.0245,0.0411 0.0352,0.0625 0.0332,0.0191 0.0663,0.0515 0.082,0.0625 -0.0102,-0.0107 0.008,0.0229 0.0117,0.0274 0.008,0.005 0.0126,0.008 0.0176,0.0117 0.0344,0.0271 0.0622,0.0588 0.084,0.0957 0.006,0.0106 -0.0143,-0.0197 -0.0215,-0.0293 0.0287,0.0142 0.0506,0.0393 0.0801,0.0703 0.007,0.0126 0.016,0.0244 0.0234,0.0371 0.003,0.002 0.007,0.0107 0.01,0.0117 0.0177,0.009 0.0364,0.0218 0.0527,0.0332 0.0211,0.0324 0.0132,0.0344 0.0176,0.041 0.0212,0.0225 0.0454,0.044 0.0664,0.0664 0.0163,0.0119 0.0316,0.0267 0.0488,0.0371 0.12513,0.0763 0.0133,-0.0181 0.1836,0.11133 0.12418,0.0944 0.23459,0.20007 0.33984,0.31445 0.0286,0.0557 0.10485,0.0763 0.14063,0.125 0.0237,0.0322 0.0463,0.067 0.0664,0.10156 0.0318,0.0293 0.0329,0.0256 0.0762,0.0879 0.015,0.0216 0.007,0.0251 0.0117,0.0391 0.006,0.006 0.0122,0.002 0.0176,0.0117 0.0327,0.0606 0.0207,0.0394 0.0527,0.0957 6.8e-4,0.001 0.009,0.005 0.01,0.006 0.0658,0.0193 0.12983,0.0604 0.17188,0.14453 0.0916,0.18316 0.077,0.16489 0.084,0.18359 10e-4,0.002 0.01,0.0236 0.01,0.0156 0.016,0.0208 0.0356,0.0342 0.0527,0.0508 0.003,0.002 0.009,-2e-4 0.0117,0.004 h 0.004 c 0.002,10e-4 0.0121,0.009 0.0117,0.01 9.5e-4,5.5e-4 0.009,-6.8e-4 0.0117,0.006 0.003,0.003 0.009,0.008 0.0117,0.0117 9.9e-4,0.001 0.0107,0.01 0.0117,0.0117 0.002,0.003 0.009,0.009 0.0117,0.0117 h 0.0117 c 0.006,0.007 0.0124,0.0116 0.0137,0.0137 9.9e-4,0.002 4.5e-4,0.0107 0,0.0117 9.9e-4,-0.001 0.0107,8e-5 0.0117,-0.004 0.0322,0.0159 0.0561,0.0441 0.0801,0.0703 0.004,0.002 0.009,0.008 0.0117,0.0117 0.006,0.003 0.012,0.006 0.0176,0.01 0.0116,0.008 0.0224,0.0185 0.0332,0.0273 0.01,0.006 0.0207,0.01 0.0293,0.0176 0.0403,0.0378 0.042,0.0564 0.041,0.0449 0.002,0.002 0.01,0.0107 0.0117,0.0117 0.0297,0.0196 0.0496,0.0479 0.0801,0.0664 0.017,0.0165 0.0353,0.0366 0.0527,0.0527 0.0313,0.0288 0.0611,0.0411 0.0957,0.0644 0.0307,0.0206 0.0444,0.0366 0.0293,0.0195 0.0189,0.0188 0.0375,0.0344 0.0547,0.0547 0.006,0.007 0.007,0.0175 0.0117,0.0254 0.007,0.0116 0.0282,0.0254 0.0371,0.0332 0.0531,0.037 0.0578,0.0546 0.084,0.11914 0.005,0.0116 -0.008,-0.0221 -0.0137,-0.0332 0.13541,0.10219 0.24519,0.23596 0.35351,0.36524 0.014,0.0203 0.025,0.042 0.0391,0.0625 0.002,0.002 0.0282,0.0479 0.0488,0.084 0.0102,0.008 0.0198,0.0152 0.0293,0.0234 0.005,0.004 -0.002,0.009 0,0.0117 l 0.0117,0.0117 c 10e-4,7.6e-4 0.008,0.009 0.01,0.01 l 0.0117,0.0117 v 0.0117 c 0.007,0.006 0.0117,0.0114 0.0176,0.0176 0.0122,0.0131 0.025,0.0277 0.0371,0.041 0.0332,0.0269 0.0546,0.0637 0.082,0.0957 0.0184,0.0215 0.0633,0.0525 0.084,0.0703 0.045,0.0482 0.10834,0.0955 0.14844,0.14844 0.0116,0.0153 0.0187,0.0311 0.0293,0.0469 0.0382,0.0933 0.12121,0.15643 0.18164,0.23438 0.0121,0.0156 0.022,0.0306 0.0332,0.0469 0.006,0.009 0.0131,0.0191 0.0176,0.0293 0.006,0.013 0.0119,0.0278 0.0156,0.041 0.0214,0.0222 0.0478,0.0677 0.0625,0.0918 0.0485,0.1075 0.11234,0.20569 0.16602,0.31055 0.008,0.0121 0.008,0.0279 0.0137,0.041 0.0318,0.0393 0.0623,0.0785 0.0957,0.11328 0.0129,0.0135 0.0312,0.0245 0.0449,0.0371 0.0177,0.0164 0.0336,0.0339 0.0508,0.0508 0.0655,0.06 0.11249,0.13576 0.1543,0.2129 0.0241,0.0445 0.009,0.0219 0.0293,0.0469 0.0665,0.0397 0.10619,0.10907 0.16015,0.16211 0.0128,0.0152 0.0281,0.0297 0.041,0.0449 0.0487,0.0573 0.0268,0.025 0.0742,0.0918 0.0145,0.0208 0.0231,0.0394 0.043,0.0547 0.0367,0.0303 0.0476,0.0729 0.0703,0.11132 0.004,0.007 0.0144,0.0126 0.0195,0.0195 0.0489,0.0655 0.0136,0.0332 0.0606,0.0723 0.0771,0.0697 0.12332,0.16178 0.1875,0.24219 0.0127,0.0131 0.028,0.0283 0.041,0.041 0.0143,0.014 0.0311,0.0265 0.0449,0.041 0.0294,0.0309 0.0505,0.0689 0.0801,0.0996 0.018,0.0187 0.0418,0.0312 0.0625,0.0469 0.10338,0.0682 0.15859,0.1803 0.24414,0.26563 0.0315,0.033 0.0528,0.0774 0.0879,0.10742 0.004,0.004 0.0109,0.009 0.0156,0.0117 0.0372,0.0292 0.056,0.0492 0.0879,0.084 0.11996,0.12084 0.22263,0.25658 0.30078,0.40821 0.0343,0.0666 0.0636,0.13735 0.0957,0.20508 0.0142,0.025 0.0297,0.0498 0.0449,0.0742 0.0124,0.02 0.0261,0.0428 0.0391,0.0625 0.0325,0.0492 0.064,0.10146 0.0996,0.14844 0.0373,0.0492 0.0794,0.0953 0.11914,0.14258 0.0329,0.0389 0.0688,0.0742 0.10742,0.10742 0.005,0.005 0.0301,0.025 0.0332,0.0293 0.0135,0.0196 0.0253,0.0419 0.0371,0.0625 0.002,0.004 0.009,0.008 0.0117,0.0117 0.008,0.009 0.0146,0.0194 0.0215,0.0293 0.003,0.005 0.008,0.01 0.0117,0.0156 0.002,0.003 0.01,0.009 0.0117,0.0117 l 0.008,0.004 c 0.002,0.002 0.008,0.009 0.01,0.0117 0.002,-3.9e-4 -1.9e-4,-0.007 0.004,-0.006 0.005,0.002 0.009,0.009 0.0117,0.0117 h 0.0117 0.01 c 9.9e-4,4.1e-4 0.0107,-2e-4 0.0117,0.004 0.003,0.002 0.009,0.01 0.0117,0.0117 0.004,0.003 0.0109,0.008 0.0156,0.0117 v 0.002 l 0.002,0.002 c 0.003,0.003 0.01,0.0107 0.01,0.0117 l 0.002,0.002 c 0.002,0.002 0.0117,0.0107 0.0117,0.0117 9.9e-4,8.6e-4 0.006,0.005 0.0117,0.0117 0.006,0.004 0.009,0.007 0.0117,0.0117 0.006,0.009 0.0181,0.0117 0.0234,0.0215 0.003,0.004 0.004,0.0109 0.006,0.0156 l 0.002,0.002 0.0117,0.0117 c 0.004,0.002 0.01,0.009 0.0137,0.0117 l 0.0117,0.0117 0.0117,0.0117 0.0117,0.0117 c 0.005,0.007 0.008,0.006 0.0117,0.01 0.003,0.003 0.006,0.008 0.0117,0.0117 v 0.0117 c -5.8e-4,-0.0258 0.0544,0.0911 0.0469,0.0547 0.005,0.007 0.009,0.0109 0.0156,0.0176 0.0103,0.01 0.0189,0.0198 0.0293,0.0293 0.0332,0.0294 0.0703,0.0562 0.10352,0.0859 0.0396,0.0305 0.0572,0.0643 0.084,0.10547 0.0119,0.0148 0.0215,0.0287 0.0332,0.043 0.01,0.0105 0.0192,0.0208 0.0293,0.0312 0.0376,0.0383 0.0642,0.0596 0.0918,0.10742 0.003,0.006 0.01,0.0123 0.0117,0.0176 0.0652,0.0695 0.10498,0.15916 0.16015,0.23633 0.0242,0.0375 0.0495,0.0757 0.0742,0.11328 v 0.006 l 0.01,0.0117 c 9.9e-4,0.003 0.0117,0.0117 0.0117,0.0117 0.0175,0.026 0.0346,0.0523 0.0488,0.0801 0.002,0.004 0.009,0.009 0.0117,0.0117 l 0.0117,0.01 c 0.005,0.004 0.01,0.007 0.0137,0.0117 0.0216,0.0259 0.033,0.055 0.0547,0.0801 0.008,0.007 0.0123,0.0169 0.0156,0.0234 0.0861,0.15397 0.0518,0.0613 0.0723,0.11914 0.0175,0.0733 7.3e-4,-0.002 0.041,0.0664 0.0587,0.0965 -0.005,0.009 0.0449,0.0762 0.0145,0.0192 0.0524,0.0481 0.0547,0.0703 0.005,0.007 0.0115,0.0128 0.0176,0.0215 0.009,0.0175 0.0544,0.13019 0.0742,0.14257 0.0263,0.0158 0.0599,0.0371 0.0742,0.0625 0.005,0.008 0.007,0.0198 0.01,0.0293 0.0254,0.0491 0.0687,0.0863 0.0918,0.13672 0.003,0.006 0.009,0.0129 0.0117,0.0195 0.004,0.007 0.008,0.009 0.0117,0.0137 0.0172,0.0267 0.0264,0.0596 0.041,0.0879 v 0.0117 c 0.0129,0.0213 0.0351,0.0354 0.0508,0.0547 0.002,0.0197 0.008,0.043 0.0117,0.0625 0.002,0.003 0.01,0.009 0.0117,0.0117 0.23509,0.27243 0.45954,0.55451 0.68555,0.83008 0.007,0.002 0.0106,0.004 0.0176,0.0117 0.0321,0.0309 0.0626,0.066 0.0918,0.0996 0.0273,0.0315 0.0384,0.0434 0.0664,0.0723 0.007,0.007 0.0159,0.0164 0.0234,0.0234 l 0.0117,0.0117 c 0.005,0.001 0.0109,0.01 0.0156,0.0117 0.006,0.002 0.009,0.008 0.0137,0.0117 0.0135,0.009 0.0363,0.0197 0.0488,0.0293 0.013,0.0101 0.0107,0.0197 0.0117,0.0293 l 0.0117,0.0117 c 0.01,0.0126 0.0194,0.0245 0.0293,0.0371 0.0112,0.0152 0.005,0.007 0.0195,0.0254 0.0107,0.0142 0.0189,0.0307 0.0293,0.0449 0.003,0.004 0.008,0.008 0.0117,0.0117 0.009,0.008 0.0207,0.0187 0.0293,0.0273 0.0128,0.0128 0.004,0.006 0.0176,0.0176 0.005,0.005 0.0109,0.0119 0.0156,0.0156 0.004,0.003 0.009,0.009 0.0117,0.0117 0.0132,0.0123 0.007,0.007 0.0215,0.0195 l 0.0117,0.0117 c 0.008,0.003 0.0141,0.001 0.0215,0.0117 0.002,0.003 0.009,0.008 0.0117,0.0117 l 0.01,0.006 0.0117,0.0117 c 0.002,0.002 0.0117,0.0116 0.0117,0.0137 l 0.0117,0.0117 c 9.9e-4,0.006 0.002,0.001 0.0117,0.0156 0.003,0.006 0.008,0.0119 0.0117,0.0176 0.0134,0.0138 0.01,0.0121 0.0195,0.0332 l 0.0117,0.0117 c 0.005,0.004 0.008,0.008 0.0117,0.0137 0.0175,0.025 0.0348,0.0521 0.0508,0.0781 0.0132,0.0169 0.028,0.0324 0.0469,0.043 9.9e-4,0.001 0.009,0.01 0.008,0.0117 0.004,7.7e-4 0.008,0.01 0.0117,0.0117 0.007,0.003 0.0154,0.0153 0.0215,0.0195 0.007,0.009 0.001,0.003 0.0156,0.0137 0.003,0.003 0.008,0.01 0.0117,0.0117 0.0135,0.01 0.0297,0.0173 0.041,0.0293 0.0151,0.0116 0.008,0.006 0.0254,0.0176 0.007,0.006 0.0148,0.0133 0.0215,0.0195 0.002,0.002 0.006,0.01 0.008,0.0117 0.004,0.004 0.0109,0.008 0.0156,0.0117 0.0137,0.0147 0.021,0.0207 0.0391,0.0293 l 0.0117,0.0117 c 0.007,0.005 0.01,0.0107 0.0117,0.0117 l 0.0117,0.0117 c 0.004,0.002 0.009,0.007 0.0117,0.01 9e-4,0.001 0.0187,0.0456 0,0.0117 0.003,0.005 0.0102,0.008 0.0137,0.0117 10e-4,0.002 0.0255,0.032 0.0117,0.0117 0.004,0.004 0.008,0.0109 0.0117,0.0156 v 0.01 c 0.003,0.004 0.0136,0.0117 0.0117,0.0117 0.007,0.005 0.0148,0.01 0.0176,0.0156 0.004,0.006 0.009,0.013 0.0117,0.0195 0.006,0.008 0.0132,0.0158 0.0117,0.0117 0.006,0.008 0.0127,0.0181 0.0195,0.0254 0.007,0.007 0.015,0.0103 0.0215,0.0176 0.006,0.007 0.01,0.016 0.0156,0.0234 0.0187,0.025 0.0219,0.0288 0.0254,0.0332 0.003,0.004 0.009,0.007 0.0117,0.0117 3.7e-4,5.8e-4 0.0117,0.0107 0.0117,0.0117 0.004,0.006 0.005,0.003 0.0215,0.0293 0.0519,0.0765 0.10754,0.15247 0.16016,0.22851 0.014,0.0202 0.0292,0.0372 0.041,0.0586 0.002,0.004 -0.002,0.008 0,0.0117 10e-4,0.002 0.008,0.008 0.01,0.008 0.004,0.002 0.0117,0.0117 0.0117,0.0117 0.004,0.001 0.008,0.01 0.0117,0.0117 0.0187,0.0118 0.0241,0.0385 0.0371,0.0547 0.0141,0.0234 0.0268,0.0509 0.041,0.0742 0.0332,0.0542 0.0415,0.0679 0.0801,0.12305 0.0782,0.11152 0.0295,0.0417 0.11328,0.15625 0.0522,0.071 0.0584,0.0772 0.10351,0.14648 0.009,0.0137 0.0363,0.0281 0.0293,0.043 0.005,0.001 0.01,0.002 0.0137,0.0117 0.0187,0.0114 0.0247,0.0348 0.0332,0.0527 0.006,0.0115 0.02,0.0295 0.0293,0.0469 0.0387,0.0498 0.0748,0.10052 0.11329,0.15039 l 0.0117,0.0117 c 0.0252,0.0299 0.0482,0.0603 0.0762,0.0879 0.0345,0.0391 0.0717,0.0794 0.10546,0.11914 0.0136,0.016 0.0277,0.0307 0.041,0.0469 0.009,0.0105 0.0215,0.0163 0.0215,0.0293 0,0.008 -0.0132,0.01 -0.0215,0.0117 0.007,-1.3e-4 0.0145,-0.003 0.0215,0 0.0265,0.009 0.0265,0.0147 0.041,0.0293 0.007,0.007 0.0144,0.0147 0.0215,0.0215 0.0338,0.038 0.0291,0.0307 0.0625,0.0742 0.01,0.0132 0.0208,0.0281 0.0312,0.041 0.0186,0.0231 0.0449,0.0503 0.0645,0.0723 0.0118,0.0131 0.0255,0.0278 0.0371,0.041 0.009,0.0128 0.0158,0.0286 0.0254,0.041 0.016,0.0204 0.0583,0.062 0.0742,0.0801 0.0576,0.0656 0.0278,0.0305 0.0801,0.0957 0.01,0.0123 0.0214,0.0249 0.0312,0.0371 0.01,0.019 -0.004,-0.001 0.0137,0.0176 0.003,0.002 0.01,0.009 0.0117,0.0117 0.004,0.002 0.008,0.009 0.0117,0.0117 0.0121,0.011 0.0265,0.0207 0.0371,0.0332 0.005,0.007 0.0109,0.0143 0.0156,0.0215 0.006,0.009 0.009,0.009 0.0117,0.0137 0.006,0.003 0.01,0.001 0.0156,0.0117 l 0.0117,0.008 c 0.0164,0.0232 0.0231,0.0307 0.0352,0.0547 0.003,0.006 0.01,0.008 0.0117,0.0137 8.1e-4,0.002 0.0117,0.01 0.0117,0.0117 5e-5,0.003 5.5e-4,0.009 0,0.0117 0.002,0.002 0.0107,0.01 0.0117,0.0117 0.003,0.005 0.0107,0.0102 0.0117,0.0156 -6.4e-4,-7.5e-4 9.9e-4,-9.3e-4 0.0117,0.01 0.008,0.009 0.0176,0.0219 0.0254,0.0312 l 0.004,0.004 c 10e-4,0.002 0.0107,0.007 0.0117,0.008 0.004,0.005 0.0109,0.007 0.0156,0.0117 0.01,0.01 0.0216,0.0181 0.0293,0.0293 0.002,0.003 0.01,0.009 0.0117,0.0117 l 0.0117,0.0117 c 0.002,0.004 0.009,0.008 0.0117,0.0117 0.004,0.005 0.01,0.009 0.0156,0.0137 l 0.002,0.01 c 0.0145,0.0174 0.013,0.0156 0.0117,0.0137 -9.9e-4,-0.002 0.008,0.007 0.0117,0.0117 0.002,0.001 0.003,0.0107 0.004,0.0117 0.002,0.003 -0.002,-0.001 0.002,0.004 0.004,0.004 0.0107,0.007 0.0117,0.0117 9e-4,10e-4 -0.001,0.0107 0.002,0.0117 0.002,0.003 0.01,0.01 0.0117,0.0117 l 0.0117,0.0117 c 0.007,0.008 0.0137,0.0139 0.0195,0.0215 0.003,0.004 0.009,0.008 0.0117,0.0117 0.01,0.0121 0.0198,0.0251 0.0293,0.0371 l 0.002,0.01 0.0117,0.0117 c 9.1e-4,0.001 -9.1e-4,0.009 0.004,0.01 l 0.0117,0.0117 c 0.004,0.003 0.008,0.008 0.0117,0.0117 l 0.0117,0.01 c 0.0266,0.0132 0.0467,0.033 0.0664,0.0547 0.003,0.004 0.008,0.009 0.0117,0.0117 0.004,0.004 0.007,0.008 0.0117,0.0117 0.0264,0.0248 0.004,0.005 0.0293,0.0293 0.005,0.005 0.0203,0.0188 0.0254,0.0234 0.0792,0.0605 0.0938,0.0675 0.17774,0.125 0.1055,0.0723 0.053,0.0369 0.14453,0.0977 0.0517,0.0358 0.018,0.0113 0.041,0.0293 0.0145,0.0114 0.033,0.0227 0.0449,0.0371 0.05,0.0441 -0.0112,-0.01 0.0469,0.0391 0.009,0.008 0.0198,0.0197 0.0293,0.0274 0.0298,0.0249 0.0607,0.0482 0.0879,0.0762 0.0326,0.0273 0.0671,0.0528 0.0996,0.0801 0.0245,0.0207 0.0474,0.0423 0.0723,0.0625 0.008,0.006 0.011,0.0118 0.0156,0.0176 h 0.002 0.0117 c 8.6e-4,0.001 0.009,0.01 0.01,0.0117 -7.7e-4,-0.002 0.0107,0.0107 0.0117,0.0117 l 0.008,0.002 c 0.003,-0.003 0.0117,-0.008 0.0117,-0.0117 0.004,0.005 0.009,0.0121 0.0117,0.0195 v 0.004 c -0.005,-0.002 0.003,0.001 0.0117,0.0117 0.002,0.003 0.01,0.009 0.0117,0.0117 0.007,0.005 0.0135,0.0119 0.0176,0.0195 0.006,0.009 0.0134,0.0176 0.0156,0.0215 0.009,0.007 0.0104,0.0175 0.0176,0.0254 l 0.0117,0.008 c 0.002,0.002 0.0107,0.01 0.0117,0.0117 0.002,0.004 0.01,0.008 0.0117,0.0117 0.005,0.008 0.008,0.008 0.0137,0.0156 0.01,0.0122 0.008,0.0115 0.0156,0.0254 5.8e-4,6.7e-4 -5.9e-4,0.004 0.004,0.006 l 0.0117,0.0117 0.0117,0.0117 0.004,0.004 c 0.003,0.002 0.009,0.009 0.0117,0.0117 -0.0212,-0.006 -0.007,0.001 0.008,0.0117 0.002,9.6e-4 0.0107,0.01 0.0117,0.0117 0.002,6.7e-4 0.01,-0.001 0.01,0.002 l 0.0117,0.006 0.0117,0.0117 0.01,0.0117 c 0.006,0.006 0.0147,0.0106 0.0195,0.0176 9.9e-4,0.002 0.008,0.0107 0.01,0.0117 0.003,0.003 0.009,0.01 0.0117,0.0117 0.007,0.007 0.0132,0.016 0.0176,0.0254 0.009,0.0146 2.2e-4,-0.003 0.0117,0.0137 10e-4,0.002 0.0118,0.0117 0.01,0.0117 h 0.002 c 0.006,0.005 0.0135,0.0131 0.0137,0.0215 l 0.006,0.0117 c 4.9e-4,0.001 0.01,0.01 0.01,0.0117 v 0.01 c 9.9e-4,0.002 0.0107,0.0107 0.0117,0.0117 0.002,0.002 4.3e-4,0.0107 0.004,0.0117 l 0.0117,0.01 c -0.002,-3.2e-4 0.004,0.002 0.0117,0.0117 10e-4,0.001 3.5e-4,0.01 0,0.0117 v 0.002 l 0.0117,0.006 c 9.9e-4,0.001 0.0107,0.008 0.0117,0.01 0.002,0.002 0.0107,0.01 0.0117,0.0117 0.004,0.008 0.01,0.0284 0.0117,0.0352 0.002,0.009 0.008,0.0187 0.01,0.0273 9.9e-4,0.006 -0.009,0.007 -0.01,0.0117 0.002,0.002 0.009,0.01 0.01,0.0117 l 0.0117,0.004 c 0.002,5.9e-4 0.01,0.008 0.0117,0.01 0.003,0.005 0.008,0.0144 0.0117,0.0195 10e-4,0.002 10e-4,-0.009 0,-0.0117 10e-4,-0.003 0.0117,0.0148 0.0117,0.0156 4.9e-4,0.003 0.0117,0.007 0.0117,0.01 0.005,0.0108 0.0102,0.0163 0.0117,0.0293 v 0.0117 c -0.002,-2.2e-4 0.001,0.004 0.0117,0.0117 0.0152,0.0191 0.0208,0.044 0.0371,0.0625 0.009,0.0107 0.0117,0.0134 0.0117,0.0215 6.7e-4,8.6e-4 0.001,0.001 0.0117,0.0117 0.005,0.006 0.009,0.0164 0.0117,0.0234 0.0153,0.0174 0.0301,0.0353 0.043,0.0547 0.006,0.01 10e-4,0.0114 0,0.0176 0.007,0.006 0.008,0.01 0.0117,0.0156 l 0.0117,0.008 c 5.8e-4,0.001 0.004,0.01 0.006,0.0117 -9.9e-4,3.9e-4 -0.0107,-0.005 -0.0117,-0.006 5.4e-4,0.001 -3.7e-4,0.0107 0,0.0117 9.9e-4,-2.4e-4 0.0107,-7.7e-4 0.0117,0 0.002,0.002 0.006,0.0107 0.008,0.0117 10e-4,5.8e-4 0.0107,0.0107 0.0117,0.0117 10e-4,0.002 0.004,0.009 0.004,0.0117 9.9e-4,0.002 0.01,0.008 0.01,0.0117 -10e-6,0.002 -1.1e-4,0.008 0,0.01 v 0.0117 l -0.002,0.002 c -4.6e-4,-0.002 -0.005,-0.0142 0.002,0.0117 -2.8e-4,0.01 -0.002,0.0231 -0.01,0.0293 -0.007,0.007 -0.0135,0.0126 -0.0195,0.0195 -0.0156,0.0117 -0.0117,0.009 -0.0117,0.006 l -0.0117,0.004 c -0.002,0.002 -0.0107,0.01 -0.0117,0.0117 -0.005,0.006 -0.009,0.009 -0.0117,0.01 -0.002,5.8e-4 -0.006,0.004 -0.01,0.008 v 0.006 l -0.0117,0.002 h -0.004 v 0.004 c -10e-4,5e-4 -0.01,5e-4 -0.01,0 -0.009,0.002 -0.0172,0.0107 -0.0117,0.0117 h -0.0117 c -10e-4,5.9e-4 -0.009,0.003 -0.01,0.004 l -0.006,0.01 c -0.002,8.6e-4 -0.0196,0.0117 -0.0215,0.0117 -0.007,0.002 -0.0254,0.0119 -0.0312,0.0117 H 560 c -10e-4,3.2e-4 -0.005,-4e-4 -0.006,0 l -0.002,0.006 c -0.004,0.002 -0.008,0.01 -0.0117,0.0117 -0.003,0.001 -0.0119,-6.4e-4 -0.0156,0 v -0.004 c -0.006,6.5e-4 -0.009,0.006 -0.0156,0.004 -0.0105,-0.003 -0.0208,-0.0117 -0.0312,-0.0117 -0.003,-9.2e-4 -0.007,-0.003 -0.01,-0.006 -0.002,-4.9e-4 -0.005,-0.0107 -0.006,-0.0117 -0.002,-5.8e-4 -0.004,-0.01 -0.006,-0.01 -0.003,-2.3e-4 -0.008,2.8e-4 -0.0117,0 -0.003,-2.8e-4 -0.008,0.001 -0.0117,-0.002 -0.005,-10e-4 -0.0136,-0.0107 -0.0176,-0.0117 -0.01,-0.004 -0.0184,-0.0117 -0.0293,-0.0117 -0.005,-0.001 -0.0109,-0.009 -0.0156,-0.01 -0.003,-9.1e-4 -0.005,-0.0107 -0.008,-0.0117 l -0.0117,-0.0117 c -0.0149,-0.008 -0.0293,-0.0152 -0.0449,-0.0215 -0.0388,-0.0156 -0.0778,-0.0342 -0.11328,-0.0566 -0.009,-0.007 -0.0171,-0.01 -0.0254,-0.0176 -0.009,-0.008 -0.001,-0.005 -0.0117,-0.0117 -9.9e-4,-0.001 -0.003,-0.004 -0.004,-0.006 -0.0126,-0.008 -0.0249,-0.017 -0.0371,-0.0254 -0.002,-0.002 -0.009,-0.01 -0.0117,-0.0117 v -0.002 c -0.004,-0.003 -0.008,-0.009 -0.0117,-0.0117 -0.008,-0.005 -0.0154,-0.008 -0.0234,-0.0137 -0.0362,-0.0246 -0.0753,-0.0487 -0.11328,-0.0703 -0.0119,-0.008 -0.0236,-0.0135 -0.0352,-0.0215 l -0.008,-0.0117 -0.0117,-0.0117 c -0.002,-0.002 -0.009,-0.01 -0.0117,-0.0117 -0.0111,-0.008 -0.0217,-0.0118 -0.0312,-0.0215 -0.002,-0.001 -0.01,-0.01 -0.0117,-0.0117 -10e-4,-8.8e-4 -0.004,-0.0107 -0.006,-0.0117 -0.006,-0.004 -0.0133,-0.008 -0.0195,-0.0117 -9.9e-4,-5e-4 -0.0107,-0.009 -0.0117,-0.01 -9.9e-4,-1.3e-4 -0.0107,-0.002 -0.0117,-0.002 l -0.0117,-0.002 c -0.0105,-0.004 -0.0195,-0.0119 -0.0293,-0.0176 -0.003,-0.003 -0.008,-0.009 -0.0117,-0.0117 -0.002,-0.002 -0.009,-0.006 -0.0117,-0.008 -10e-4,-5e-5 -0.01,0.006 -0.0117,0.006 9.9e-4,2.7e-4 0.001,-0.008 -0.002,-0.01 -0.003,-0.001 -0.009,-0.0107 -0.0117,-0.0117 l -0.002,-0.006 c -0.002,-6.8e-4 -0.01,6.7e-4 -0.0117,0 l -0.002,-0.006 c -0.006,-0.002 -0.0117,-0.009 -0.0176,-0.0117 -0.01,-0.005 -0.003,-0.008 0,-0.0117 l -0.0117,-0.004 c -0.003,-0.002 -0.009,-0.008 -0.0117,-0.01 h -0.002 c -0.002,-0.001 -0.01,-0.0107 -0.0117,-0.0117 -0.003,-0.002 -0.0125,-0.009 -0.0117,-0.0117 -0.002,-0.003 -0.0117,-0.009 -0.0117,-0.0117 -0.006,-0.001 -0.0155,-8.7e-4 -0.0195,-0.0117 h -0.002 c -0.006,-0.0153 -0.009,-0.0338 -0.0156,-0.0488 -7.6e-4,-0.002 0.001,-0.01 -0.002,-0.0117 h -0.01 l -0.002,-0.002 -0.008,-0.002 -0.01,-0.0156 v -0.002 c -0.006,-0.008 -0.0172,-0.0134 -0.0234,-0.0215 -0.005,-0.006 0.003,0.003 -0.0117,-0.0117 l -0.0117,-0.004 c -0.002,-0.003 -0.003,-0.009 -0.004,-0.0117 -0.0116,-0.0174 -0.0121,-0.0146 -0.0234,-0.0352 -0.003,-0.005 0.005,-0.008 0.004,-0.0117 -2.15972,-2.20188 -4.26425,-4.49388 -6.3457,-6.82617 -0.16489,-0.0724 -0.25757,-0.16796 -0.28516,-0.32422 -4.58245,-5.17418 -9.04601,-10.52906 -13.69726,-15.64258 -0.005,-0.003 -0.005,-0.007 -0.0117,-0.0117 -0.0848,-0.056 -0.1163,-0.093 -0.18555,-0.16211 -0.0473,-0.0446 -0.19364,-0.18098 -0.2207,-0.21289 -0.0811,-0.0958 -0.0459,-0.0919 -0.10547,-0.18164 -0.057,-0.0858 -0.0885,-0.10682 -0.16602,-0.17969 -0.11933,-0.1102 -0.24422,-0.21605 -0.3457,-0.34375 -0.024,-0.0302 -0.032,-0.0514 -0.043,-0.0723 -4.44065,-4.81225 -9.06539,-9.38554 -14.15625,-13.33398 -5.33164,-4.29605 -11.81237,-6.98349 -17.23437,-10.701174 -15.56499,-10.67178 -30.97999,-21.419144 -48,-29.714844 -40.84021,-20.106577 -86.59415,-30.554675 -132,-30.714843 z m -98.07422,9.242187 c -10.17097,3.837202 -20.83393,6.172425 -31,10.203126 -4.125,1.6355 -9.33,3.155377 -12,6.796874 11.416,-0.2432 22.35204,-6.358906 33,-10.003906 3.44301,-1.1785 10.10705,-2.686494 10,-6.996094 z M 535.04883,114.3418 c 0.004,0.002 0.005,0.007 0.008,0.01 -6.9e-4,-0.003 5.8e-4,-0.005 0,-0.008 -0.002,-0.002 -0.005,0.001 -0.008,-0.002 z m 9.15234,12.04882 c 0.007,0.002 0.0163,0.006 0.0234,0.01 0.0185,0.0193 0.0107,0.01 0.0117,0.0117 -0.0117,-0.007 -0.0215,-0.0133 -0.0352,-0.0215 z m 4.9375,5.79102 c 0.004,0.008 0.008,0.0171 0.0117,0.0254 0.003,-8.6e-4 0.005,-0.003 0.008,-0.004 -0.007,-0.007 -0.0131,-0.0143 -0.0195,-0.0215 z m 1.44727,1.60352 c 0.0106,0.012 0.0168,0.0272 0.0273,0.0391 -0.002,-0.005 -0.006,-0.009 -0.008,-0.0137 -0.008,-0.007 -0.0123,-0.0175 -0.0195,-0.0254 z m 1.625,2.09961 c 10e-6,0.005 -2.8e-4,0.009 0,0.0137 2e-4,0.005 -0.001,-0.006 0.002,-0.0137 z m 0.0273,0.0312 c 0.002,0.004 0.004,0.008 0.006,0.0117 l 0.002,-0.002 c -0.003,-0.004 -0.005,-0.007 -0.008,-0.01 z m 1.1836,1.02929 c 0.0109,0.0148 0.0191,0.0331 0.0332,0.0449 0.002,0.002 -0.003,-0.005 -0.004,-0.008 -0.0108,-0.0115 -0.0166,-0.0272 -0.0293,-0.0371 z m 2.50195,3.29297 c 0.003,0.003 0.005,0.007 0.008,0.01 -7e-4,-0.002 0.001,-0.005 -0.002,-0.006 -0.001,-0.001 -0.004,-0.003 -0.006,-0.004 z m 2.78125,3.32227 0.002,0.004 c 10e-4,-6e-4 0.003,4.2e-4 0.004,0 -0.004,-0.003 -0.002,0.001 -0.006,-0.004 z m 0.15234,0.51367 c 0.004,0.004 -0.001,0.006 0.002,0.01 9.9e-4,8.8e-4 0.003,0.002 0.004,0.004 -0.0171,-0.0257 0.002,0.001 -0.006,-0.0137 z m 1.02539,0.83789 c 3e-4,10e-4 9.8e-4,0.003 0,0.004 h 0.002 l 0.002,-0.002 c -10e-4,-5.1e-4 -0.003,0.001 -0.004,-0.002 z M 43.015625,482.32031 c 2.8799,13.916 10.7451,26.933 18,39 2.9851,4.965 5.803302,11.157 11,14 -4.217498,-12.386 -11.794525,-23.624 -18.140625,-35 -3.2967,-5.91 -6.040075,-13.232 -10.859375,-18 z m 28,54 c 1.103398,1.457 1.5434,1.897 3,3 -1.1034,-1.457 -1.543402,-1.897 -3,-3 z m 68.999995,62 c 2.42904,5.746 6.33001,10.846 13,11 v 2 c 3.107,0.18 5.93003,1.459 9,2 -5.59496,-6.106 -14.526,-11.464 -22,-15 z m 21,8 c 3.29204,5.597 10.901,10.057 17,12 -4.61698,-5.318 -10.55397,-9.222 -17,-12 z m 31,25 c 5.748,5.809 14.31102,8.006 22,10 -5.317,-5.328 -14.82498,-8.042 -22,-10 z" />
</svg>
